<svg xmlns="http://www.w3.org/2000/svg" viewBox="0 0 900.16 1087.26"><defs><style>.cls-1{fill:#fff;}</style></defs><g id="Layer_2" data-name="Layer 2"><g id="Layer_2-2" data-name="Layer 2"><path class="cls-1" d="M694.41,1087.26H58.09c-3-1.11-6-2.2-8.92-3.33C18.45,1072.21.05,1045.9,0,1013Q0,611.62.06,210.25c0-42.21,32.33-74.15,74.69-74.41,14.84-.09,29.68.1,44.52-.05,31.39-.3,27.29,4.15,27.67-27.57C147.7,45.73,193.51.12,256.15.07q268.17-.19,536.34,0c6.33,0,12.8.1,19,1.3,46.49,9,75.89,36.71,88.69,82.21V868.7c-11.5,41.56-37.59,68.69-79.35,80.35-18,5-36.52,3-54.82,3.07-8.58,0-12.27,2.89-12,11.68.38,13.42.11,26.86.07,40.29C753.92,1048.2,736.16,1073,694.41,1087.26ZM69.52,610.86q0,195.15,0,390.3c0,16.53.84,17.37,17.4,17.37H665.8c16.74,0,17.32-.57,17.32-17.31q0-389.23,0-778.49c0-16.78-.59-17.36-17.26-17.36H87c-16.6,0-17.46.85-17.46,17.3Q69.51,416.77,69.52,610.86ZM831.46,476.71v-97.6q0-134.21,0-268.41c0-23.79-10.28-36-33.55-40.13a79.37,79.37,0,0,0-13.7-1q-259.81-.06-519.63-.07a76.52,76.52,0,0,0-18.91,2c-17.88,4.53-27.54,16.67-27.77,35-.05,3.89,0,7.78,0,11.67,0,17.58,0,17.59,17.37,17.59q221.64,0,443.27.05c35.12,0,63.44,21.94,72.45,55.65,2.77,10.32,3.15,20.91,3.15,31.55q-.08,321.45,0,642.9c0,16.73.05,16.74,16.24,16.76,5.66,0,11.32.06,17,0,30.24-.41,44.18-14.34,44.18-44.23Q831.48,657.6,831.46,476.71Z"/><path class="cls-1" d="M383.75,390.47c53.31,0,106.62-.09,159.94.06,16.6.05,29.5,10,33.82,25.34a34.87,34.87,0,0,1-14,38.22,34,34,0,0,1-20,5.91q-161-.08-322-.1c-20.33,0-34.85-15-34.81-34.82s14.43-34.47,35-34.54C275.7,390.35,329.72,390.47,383.75,390.47Z"/><path class="cls-1" d="M383.13,595.76c-54.09,0-108.18.13-162.26-.08-17.33-.06-31.81-13-33.93-29.16-2.36-18,7.35-33.83,24.05-38.77a40.64,40.64,0,0,1,11.49-1.42q160.14-.12,320.28,0c18.52,0,32.89,11.9,35.47,28.64,2.72,17.65-7,33.7-23.47,39.28-5.19,1.75-10.46,1.54-15.74,1.54q-77.94.06-155.89,0Z"/><path class="cls-1" d="M382.71,731.58c-53.67,0-107.34.19-161-.09-26.59-.14-43.2-26.56-31.69-50,6.76-13.75,18.36-19.57,33.61-19.53,62.14.17,124.29.06,186.43.07,44.84,0,89.68-.14,134.52.11a34,34,0,0,1,33.73,29.27c2.33,17.78-7.57,33.58-24.14,38.8-4.84,1.53-9.76,1.34-14.69,1.34Q461.1,731.63,382.71,731.58Z"/></g></g></svg>