<svg xmlns="http://www.w3.org/2000/svg" viewBox="0 0 641.21 912.11"><defs><style>.cls-1{fill:#fff;}.cls-2,.cls-3,.cls-4{fill:none;stroke:#fff;stroke-miterlimit:10;stroke-width:10px;}.cls-3{stroke-dasharray:12.01 12.01;}.cls-4{stroke-dasharray:11.08 11.08;}</style></defs><g id="Layer_2" data-name="Layer 2"><g id="Layer_2-2" data-name="Layer 2"><g id="_6for6o.tif" data-name="6for6o.tif"><path class="cls-1" d="M100.88,816.16c-9-2.71-15.17-8.25-17.18-17.65-1-4.53-.33-9.2-.36-13.81,0-1.47.86-2,2.22-2,1.16,0,2.31,0,3.47,0H400.7c1.61,0,3.22.16,4.83.24v16q-3.88,13.45-17.35,17.33Zm143.79-21.94H100.37c-.93,0-1.86.06-2.78,0-2.08-.17-2.71.67-2.12,2.67a10.61,10.61,0,0,0,1.92,3.64c2.9,3.61,6.84,4.33,11.18,4.32q136,0,272,0c.93,0,1.86,0,2.78,0a11.36,11.36,0,0,0,9-5.13c1-1.45,2.05-3.18,1.23-4.8-.69-1.34-2.55-.61-3.87-.61Q317.17,794.2,244.67,794.22Z" transform="translate(-1.32)"/><path class="cls-1" d="M244.17,772H99.5c-5.1,0-5.11,0-5.11-5.12V588c0-5.09,0-5.1,5.13-5.1q145,0,290,0c5.11,0,5.12,0,5.12,5.12V766.92c0,5.1,0,5.1-5.13,5.11Zm.1-11.59H378.55c4.52,0,4.53,0,4.53-4.61V621.32c0-4.6,0-4.61-4.53-4.61H110.68c-4.69,0-4.7,0-4.7,4.78V755.66c0,4.78,0,4.78,4.7,4.78Zm-.09-155.32H353.83q12.84,0,25.67,0c1.12,0,2.76.44,3.16-.78a15.79,15.79,0,0,0,.16-8.54c-.59-2.35-3.2-1.23-4.88-1.23q-133.41-.07-266.83,0c-.81,0-1.62.05-2.42,0-1.89-.12-2.83.66-2.71,2.62.06,1,0,2.08,0,3.12,0,4.87,0,4.87,5,4.87Z" transform="translate(-1.32)"/><path class="cls-1" d="M305.6,671.76c-.09,1.41-1,1.79-1.78,2.25-2.58,1.53-5.17,3.07-7.8,4.51a2.88,2.88,0,0,0-1.62,3.37,51.91,51.91,0,0,1,0,13.47,2.86,2.86,0,0,0,1.71,3.32c2.52,1.39,5,3,7.51,4.31,1.94,1,2.35,2.17,1.19,4.13q-7.11,12.09-14,24.31c-1.09,1.91-2.19,2.35-4.14,1.18-3.07-1.84-6.24-4.79-9.38-4.8-2.93,0-5.65,3.9-8.83,4.84-6.64,2-7.62,6.33-7.09,12.29.42,4.85.07,4.89-4.89,4.9-8.32,0-16.65-.08-25,0-2.71,0-4.36-.66-3.83-3.64,1.28-7.15-.8-12.24-8.33-14.2a1.9,1.9,0,0,1-.89-.53c-4.78-5.09-9.34-3.71-14.35,0-4,2.95-4.24,2.6-6.68-1.65-4.26-7.41-8.49-14.84-12.85-22.18-1.35-2.26-1.38-4,1.28-4.84,7.54-2.46,9-7.54,8.86-15.15-.13-6.39-1.45-10.07-7.4-12.57-4.72-2-4.5-2.47-2-6.84,4.22-7.3,8.5-14.56,12.59-21.93,1.37-2.48,2.86-3.28,5.09-1.37,5.63,4.81,11.15,5.54,16.71-.07a3.15,3.15,0,0,1,1.49-.85c6.09-1.26,7.25-5.42,6.45-10.78-.12-.79.06-1.63,0-2.42-.33-2.78,1-3.59,3.61-3.56q13.35.18,26.7,0c2.79,0,3.93,1.05,3.47,3.65-1.28,7.15.83,12.23,8.34,14.19a1.86,1.86,0,0,1,.9.52c4.78,5.11,9.34,3.72,14.35,0,4-2.95,4.24-2.61,6.68,1.64,4.14,7.21,8.32,14.4,12.46,21.61C304.7,669.92,305.19,671,305.6,671.76ZM213,712.8c1.81.06,2.57,1.19,3.42,2.08,4.08,4.23,8.69,8.09,14.36,9.35,6.65,1.49,9.88,4.4,8.44,11.41-.27,1.35.23,2.35,2,2.62,7.51,1.19,8.58.35,8.62-7.12a4,4,0,0,0,0-.69c-.41-2.71.89-4,3.46-4.53a37,37,0,0,0,16.25-8.19c5.87-5,5.87-5.12,12.82-1.37,1.72.94,2.71,1,3.89-.86,4.07-6.46,4.15-6.41-2.4-10.22a1.28,1.28,0,0,0-.3-.17c-2.79-1-3.12-2.81-2.27-5.47,1.85-5.81,2.94-12,.93-17.72-2.36-6.73-.34-10.28,5.85-12.49,1.73-.62,1.76-1.75.82-3.27-5-8.13-2.84-7.43-10.37-3.09-2.4,1.38-4,1.43-6-.75-3.9-4.39-8.63-8.15-14.29-9.41-6.65-1.49-9.9-4.38-8.46-11.39.28-1.35-.22-2.36-1.95-2.63-7.5-1.2-8.58-.35-8.62,7.11a5.45,5.45,0,0,0,0,.7c.41,2.7-.87,4-3.45,4.53a37.08,37.08,0,0,0-16.25,8.19c-5.87,5-5.87,5.11-12.81,1.36-1.72-.94-2.71-1-3.9.87-4.08,6.45-4.24,6.55,2.43,10.15,2.8,1.51,3.39,3.11,2.45,6a34.71,34.71,0,0,0-.1,21.15c1,3.18.47,4.93-2.63,6.56-6.18,3.25-5.94,3.37-2.55,9.35,1.41,2.48,2.73,2.6,4.89,1.19C209.22,714.83,211.29,713.79,213,712.8Z" transform="translate(-1.32)"/><path class="cls-1" d="M138.8,688.23c0-4.28-.09-8.55,0-12.82.07-2.36-.7-3.35-3.17-3.27-4.16.14-8.33.08-12.49,0s-6.62-2.28-6.55-5.91c.07-3.47,2.43-5.61,6.48-5.63,8.09-.06,16.18,0,24.27,0a6.76,6.76,0,0,0,1.73.06c1.47-.42.86,2.77,2.34,1.51a62.64,62.64,0,0,0,6.29-6.43c.67-.77-.3-1.46-.83-2a41.61,41.61,0,0,0-3.19-3.18c-1.23-1-2.19-3.91-4.34-.8-.29.41-1.53.23-2.34.23-7.86,0-15.72,0-23.58,0-4.34,0-6.76-2.07-6.83-5.64-.08-3.74,2.37-5.87,6.9-5.91,4,0,8.09-.12,12.13,0,2.47.09,3.24-.9,3.18-3.26-.13-4.27,0-8.55,0-12.82,0-.65-.17-1.5.61-1.82s1.27.38,1.73.85c10.72,10.69,21.41,21.42,32.16,32.07,1.9,1.88.67,3-.62,4.26-9.41,9.39-18.74,18.85-28.26,28.12-2.2,2.15-2.2,3.32,0,5.46,9.36,9.11,18.47,18.47,27.81,27.6,2.18,2.14,2.5,3.49.13,5.8-10.26,10-20.32,20.22-30.48,30.32-.69.69-1.32,2-2.45,1.54s-.61-1.84-.62-2.81c-.06-3.93-.13-7.86,0-11.78.08-2.37-.71-3.35-3.17-3.26-4.16.14-8.32.07-12.48,0s-6.63-2.29-6.55-5.92c.07-3.47,2.44-5.6,6.48-5.63,8,0,16,0,23.93,0a8.05,8.05,0,0,0,2.07.06c1.48-.39.86,2.78,2.35,1.51a70.65,70.65,0,0,0,6.29-6.42c.56-.62-.13-1.29-.6-1.78-1.13-1.16-2.22-2.37-3.44-3.43s-2.2-3.82-4.33-.8c-.3.42-1.54.23-2.34.23-7.87,0-15.73,0-23.59,0-4.33,0-6.75-2.08-6.82-5.65-.07-3.74,2.37-5.87,6.9-5.91,4,0,8.1-.11,12.14,0,2.47.09,3.23-.91,3.17-3.27C138.71,697.24,138.8,692.73,138.8,688.23Z" transform="translate(-1.32)"/><path class="cls-1" d="M350.26,688.83c0,4.39.08,8.78,0,13.17-.06,2.29.86,3.06,3.07,3,4.28-.1,8.56-.08,12.84,0,4,.07,6.32,2.32,6.29,5.82S370,716.5,366,716.53c-8.1.06-16.2,0-24.29,0a6.78,6.78,0,0,0-1.73-.07c-1.48.4-1-2.69-2.35-1.53a60.55,60.55,0,0,0-6.3,6.41c-.7.77.24,1.47.78,2,1.12,1.17,2.25,2.33,3.43,3.44s2.19,3.47,4.09.58c.27-.41,1.53-.23,2.34-.24,7.86,0,15.73,0,23.59,0,4.34,0,6.77,2.07,6.85,5.63.08,3.74-2.38,5.89-6.9,5.93-4,0-8.1.12-12.14,0-2.47-.09-3.24.91-3.17,3.27.13,4.15,0,8.32,0,12.48,0,.75.31,1.74-.63,2.14-.75.32-1.26-.4-1.73-.87q-16.08-16-32.16-32.09c-1.93-1.91-.54-3,.71-4.25l27.72-27.7c3.11-3.11,3.11-3.12-.11-6.34-9.16-9.15-18.27-18.36-27.52-27.42-2.07-2-2-3.29,0-5.3,10.23-10,20.31-20.23,30.48-30.34.76-.76,1.43-2.25,2.71-1.63,1,.47.51,1.89.52,2.89,0,3.69.16,7.4,0,11.09-.14,2.79.71,4,3.69,3.82,4-.21,8.09-.1,12.14,0s6.37,2.23,6.39,5.72-2.35,5.78-6.31,5.81c-8.1.07-16.19,0-24.29,0-1.16,0-2.5.41-3.19-1.31-.58-1.43-1.25-.08-1.72.32-6.76,5.72-6.76,7,0,12.69.44.37,1.15,1.47,1.55.53,1.06-2.53,3.14-1.52,4.76-1.54,7.4-.12,14.81-.08,22.21,0,4.55,0,7,2.13,6.95,5.87-.05,3.57-2.49,5.64-6.8,5.69-3.93,0-7.87.14-11.79,0-2.67-.11-3.76.7-3.64,3.53C350.4,680,350.26,684.44,350.26,688.83Z" transform="translate(-1.32)"/><path class="cls-1" d="M272.52,688.51a28,28,0,1,1-27.87-27.91A27.69,27.69,0,0,1,272.52,688.51Zm-27.85-16.24a16.31,16.31,0,1,0,16.17,15.83C260.57,679.5,253.08,672.18,244.67,672.27Z" transform="translate(-1.32)"/></g><path class="cls-1" d="M1.32,892.41c0-8.54,4.19-13,10.32-13S22,883.87,22,892.41c0,8.76-4.19,13.19-10.31,13.19S1.32,901.17,1.32,892.41Zm13.81,0c0-4.81-1.32-7.22-3.49-7.22s-3.49,2.41-3.49,7.22c0,5,1.31,7.44,3.49,7.44S15.13,897.45,15.13,892.41Z" transform="translate(-1.32)"/><path class="cls-1" d="M25.75,879.92h9.47c5.43,0,10.08,2,10.08,8.38,0,6.16-4.81,8.84-10.08,8.84h-2.8v8H25.75Zm9.16,11.94c2.63,0,3.88-1.31,3.88-3.56s-1.4-3.11-3.88-3.11H32.42v6.67Z" transform="translate(-1.32)"/><path class="cls-1" d="M49.8,879.92H66.94v5.58H56.47v4h8.92v5.59H56.47v4.49H67.33v5.59H49.8Z" transform="translate(-1.32)"/><path class="cls-1" d="M72.06,879.92h9.39c5.43,0,10.08,1.86,10.08,8.14,0,6.09-4.65,8.61-10.08,8.61H78.73v8.46H72.06ZM81,891.4c2.64,0,4-1.16,4-3.34s-1.4-2.87-4-2.87H78.73v6.21Zm3.77-.89,8.18,14.62H85.48l-5.23-10.2Z" transform="translate(-1.32)"/><path class="cls-1" d="M100.69,879.92h8.06l7.61,25.21H109.3l-2.84-12.26c-.54-2.4-1.28-5.43-1.82-8h-.15c-.55,2.56-1.21,5.59-1.75,8l-2.83,12.26H93.08Zm-2.14,14.7h12.26v5.16H98.55Z" transform="translate(-1.32)"/><path class="cls-1" d="M124.66,885.5H117.4v-5.58h21.18v5.58h-7.25v19.63h-6.67Z" transform="translate(-1.32)"/><path class="cls-1" d="M142.18,899.54h5.75v-14h-5.75v-5.58h18.16v5.58H154.6v14h5.74v5.59H142.18Z" transform="translate(-1.32)"/><path class="cls-1" d="M165.22,879.92H172l4.23,11.25,2.06,5.66h.15a90.22,90.22,0,0,1-.93-9.62v-7.29h6.36v25.21h-6.75l-4.23-11.29-2.05-5.62h-.16a93.92,93.92,0,0,1,.93,9.62v7.29h-6.36Z" transform="translate(-1.32)"/><path class="cls-1" d="M187.72,892.72c0-8.54,5.31-13.27,11.87-13.27a10.26,10.26,0,0,1,7.52,3.26l-3.64,4.11a5,5,0,0,0-3.88-1.63c-2.76,0-5,2.72-5,7.3s1.75,7.36,5.36,7.36a2.93,2.93,0,0,0,1.7-.46V895.9H198.5v-5.43h9.08v12a12.73,12.73,0,0,1-8,3.11C193.07,905.6,187.72,901.33,187.72,892.72Z" transform="translate(-1.32)"/><path class="cls-1" d="M234.42,902l3.8-4.58a10.92,10.92,0,0,0,6.44,2.44c2,0,2.79-.65,2.79-1.47,0-1.47-1.32-1.78-3.65-2.75l-3.14-1.32c-2.91-1.09-5.31-3.38-5.31-7,0-4.31,3.87-7.84,9.61-7.84a12.7,12.7,0,0,1,8.62,3.38L250.24,887a9.11,9.11,0,0,0-5.66-1.83c-1.48,0-2.49.55-2.49,1.71s1.44,1.59,4,2.52l2.91,1.2c3.37,1.24,5.31,3.42,5.31,6.91,0,4.26-3.56,8.07-10.08,8.07A15.2,15.2,0,0,1,234.42,902Z" transform="translate(-1.32)"/><path class="cls-1" d="M264.28,896.79l-8-16.87h7.14l2.09,5.51c.66,1.94,1.36,3.72,2.06,5.74h.15c.7-2,1.44-3.8,2.14-5.74l2.09-5.51h7l-8,16.87v8.34h-6.67Z" transform="translate(-1.32)"/><path class="cls-1" d="M281,902l3.8-4.58a10.92,10.92,0,0,0,6.44,2.44c2,0,2.79-.65,2.79-1.47,0-1.47-1.32-1.78-3.65-2.75l-3.14-1.32c-2.91-1.09-5.31-3.38-5.31-7,0-4.31,3.88-7.84,9.62-7.84a12.69,12.69,0,0,1,8.61,3.38L296.78,887a9.11,9.11,0,0,0-5.66-1.83c-1.47,0-2.48.55-2.48,1.71s1.43,1.59,3.95,2.52l2.91,1.2c3.38,1.24,5.32,3.42,5.32,6.91,0,4.26-3.57,8.07-10.09,8.07A15.2,15.2,0,0,1,281,902Z" transform="translate(-1.32)"/><path class="cls-1" d="M310.82,885.5h-7.25v-5.58h21.18v5.58h-7.26v19.63h-6.67Z" transform="translate(-1.32)"/><path class="cls-1" d="M329.05,879.92h17.14v5.58H335.72v4h8.92v5.59h-8.92v4.49h10.86v5.59H329.05Z" transform="translate(-1.32)"/><path class="cls-1" d="M351.08,879.92h6.79l2.05,8.22.7,3.26h.16l.69-3.26,2.06-8.22h6.79v25.21h-5.51V899.2c0-3,.54-9.86.85-12.8h-.11l-2.14,7.48-1.31,4.58h-3l-1.4-4.58-1.94-7.48h-.15c.31,2.94.85,9.81.85,12.8v5.93h-5.43Z" transform="translate(-1.32)"/><path class="cls-1" d="M402.2,894.35a23.76,23.76,0,0,1,8-17.77l3.68,2.87c-4.38,4.54-6.2,8.92-6.2,14.9s1.82,10.35,6.2,14.89l-3.68,2.87A23.74,23.74,0,0,1,402.2,894.35Z" transform="translate(-1.32)"/><path class="cls-1" d="M420.19,892.41c0-8.54,4.19-13,10.32-13s10.32,4.42,10.32,13c0,8.76-4.19,13.19-10.32,13.19S420.19,901.17,420.19,892.41Zm13.81,0c0-4.81-1.32-7.22-3.49-7.22S427,887.6,427,892.41c0,5,1.32,7.44,3.49,7.44S434,897.45,434,892.41Z" transform="translate(-1.32)"/><path class="cls-1" d="M443.85,902l3.8-4.58a10.92,10.92,0,0,0,6.44,2.44c2,0,2.79-.65,2.79-1.47,0-1.47-1.31-1.78-3.64-2.75l-3.14-1.32c-2.91-1.09-5.32-3.38-5.32-7,0-4.31,3.88-7.84,9.62-7.84a12.66,12.66,0,0,1,8.61,3.38L459.68,887a9.14,9.14,0,0,0-5.67-1.83c-1.47,0-2.48.55-2.48,1.71s1.44,1.59,4,2.52l2.91,1.2c3.37,1.24,5.31,3.42,5.31,6.91,0,4.26-3.57,8.07-10.08,8.07A15.22,15.22,0,0,1,443.85,902Z" transform="translate(-1.32)"/><path class="cls-1" d="M470.38,909.24c4.38-4.54,6.21-8.92,6.21-14.89s-1.83-10.36-6.21-14.9l3.69-2.87a23.67,23.67,0,0,1,0,35.53Z" transform="translate(-1.32)"/><path class="cls-1" d="M390.27,89.79h7.25c7.21,0,12.3,3.57,12.3,12.49S404.73,115,397.91,115h-7.64Zm6.9,19.86c3.22,0,5.82-1.48,5.82-7.37s-2.6-7.14-5.82-7.14h-.23v14.51Z" transform="translate(-1.32)"/><path class="cls-1" d="M414.31,89.79h17.15v5.58H421v4h8.93v5.58H421v4.5h10.86V115H414.31Z" transform="translate(-1.32)"/><path class="cls-1" d="M436,111.86l3.8-4.58a10.92,10.92,0,0,0,6.44,2.44c2,0,2.79-.66,2.79-1.47,0-1.47-1.31-1.78-3.64-2.75l-3.14-1.32c-2.91-1.09-5.32-3.38-5.32-7,0-4.31,3.88-7.84,9.62-7.84a12.66,12.66,0,0,1,8.61,3.38l-3.33,4.18a9.2,9.2,0,0,0-5.67-1.82c-1.47,0-2.48.55-2.48,1.71s1.44,1.59,4,2.52l2.91,1.2c3.37,1.24,5.31,3.42,5.31,6.91,0,4.26-3.57,8.07-10.08,8.07A15.22,15.22,0,0,1,436,111.86Z" transform="translate(-1.32)"/><path class="cls-1" d="M459.77,89.79h6.75v9.38h.15l6.21-9.38h7.37l-13.73,18.77V115h-6.75Zm8.61,14.43,3.88-5.2,8.61,16H473.5Z" transform="translate(-1.32)"/><path class="cls-1" d="M489.17,95.37h-7.26V89.79h21.18v5.58h-7.25V115h-6.67Z" transform="translate(-1.32)"/><path class="cls-1" d="M505.46,102.28c0-8.54,4.19-13,10.31-13s10.32,4.42,10.32,13c0,8.76-4.19,13.19-10.32,13.19S505.46,111,505.46,102.28Zm13.81,0c0-4.81-1.32-7.22-3.5-7.22s-3.49,2.41-3.49,7.22c0,5,1.32,7.44,3.49,7.44S519.27,107.32,519.27,102.28Z" transform="translate(-1.32)"/><path class="cls-1" d="M529.89,89.79h9.47c5.43,0,10.08,2,10.08,8.38,0,6.16-4.81,8.84-10.08,8.84h-2.8v8h-6.67ZM539,101.73c2.64,0,3.88-1.31,3.88-3.56s-1.39-3.11-3.88-3.11h-2.48v6.67Z" transform="translate(-1.32)"/><path class="cls-1" d="M581.55,89.79h8.07l7.6,25.21h-7.06l-2.83-12.26c-.54-2.4-1.28-5.43-1.82-8h-.16c-.54,2.56-1.2,5.59-1.74,8L580.78,115H574Zm-2.13,14.7h12.26v5.16H579.42Z" transform="translate(-1.32)"/><path class="cls-1" d="M599.7,89.79h9.47c5.43,0,10.08,2,10.08,8.38,0,6.16-4.81,8.84-10.08,8.84h-2.79v8H599.7Zm9.16,11.94c2.64,0,3.88-1.31,3.88-3.56s-1.4-3.11-3.88-3.11h-2.48v6.67Z" transform="translate(-1.32)"/><path class="cls-1" d="M623,89.79h9.47c5.43,0,10.08,2,10.08,8.38,0,6.16-4.81,8.84-10.08,8.84h-2.79v8H623Zm9.16,11.94c2.64,0,3.88-1.31,3.88-3.56s-1.4-3.11-3.88-3.11h-2.48v6.67Z" transform="translate(-1.32)"/><line class="cls-2" x1="243.03" y1="252.37" x2="243.03" y2="258.37"/><line class="cls-3" x1="243.03" y1="270.38" x2="243.03" y2="504.64"/><line class="cls-2" x1="243.03" y1="510.65" x2="243.03" y2="516.65"/><line class="cls-2" x1="423.49" y1="379.99" x2="417.49" y2="379.99"/><line class="cls-4" x1="406.41" y1="379.99" x2="278.99" y2="379.99"/><line class="cls-2" x1="273.45" y1="379.99" x2="267.45" y2="379.99"/><g id="_60qrAS.tif" data-name="60qrAS.tif"><path class="cls-1" d="M312.36,186.08H176.44a8.25,8.25,0,0,0-1-.28c-14.48-2.45-24-13.25-24.08-27.94q-.18-64.73,0-129.46c.05-16.33,12-28.27,28.32-28.32q64.72-.19,129.46,0a27.52,27.52,0,0,1,20.93,9c4.22,4.54,6.29,10,7.29,16V161.05c-.86,4.71-2.19,9.22-5,13.2C327.44,181.17,320.6,184.8,312.36,186.08Zm-68-130.73H166.74c-3.87,0-3.89,0-3.89,3.8q0,48.66,0,97.32c0,11.48,6.65,18.17,18.07,18.17q63.48,0,127,0c11.42,0,18.06-6.7,18.07-18.17q0-48.66,0-97.33c0-3.76,0-3.79-3.9-3.79Zm-.1-11.51h78.13c3.51,0,3.52,0,3.52-3.6,0-3.92.07-7.84,0-11.75-.13-5.77-2.21-10.62-7.07-14-3.27-2.29-7-2.94-10.91-2.94H230.07q-24.63,0-49.28,0c-11.24,0-17.9,6.73-17.94,18,0,3.58,0,7.15,0,10.73s0,3.55,3.57,3.55Z" transform="translate(-1.32)"/><path class="cls-1" d="M282.82,27.68A5.72,5.72,0,1,1,277.14,22,5.89,5.89,0,0,1,282.82,27.68Z" transform="translate(-1.32)"/><path class="cls-1" d="M299.17,27.66A5.72,5.72,0,1,1,293.48,22,5.89,5.89,0,0,1,299.17,27.66Z" transform="translate(-1.32)"/><path class="cls-1" d="M309.88,22a5.88,5.88,0,0,1,5.64,5.74,5.72,5.72,0,1,1-11.44-.17A5.85,5.85,0,0,1,309.88,22Z" transform="translate(-1.32)"/></g><g id="j3zOaK.tif"><path class="cls-1" d="M467.18,421.28a3.86,3.86,0,0,1-1.64-3.61c0-14.46,0-28.92,0-43.39,0-1.77,0-1.77-1.82-1.77-3.78,0-7.56,0-11.33,0a2.83,2.83,0,0,1-2.91-1.62,2.94,2.94,0,0,1,.82-3.46c5.25-5.26,10.52-10.48,15.73-15.76a4.69,4.69,0,0,1,3.52-1.13c1.69-.07,3.39,0,5.09,0s1.66,0,1.66-1.74c0-3.57,0-7.13,0-10.69,0-2.77,1.09-3.84,3.88-3.85h5.47c.46,0,1,0,1.17-.53s-.23-.77-.52-1.06c-1.37-1.39-2.77-2.75-4.13-4.15-1.58-1.63-1.59-3.17,0-4.79q5.39-5.42,10.8-10.79c1.56-1.54,3.09-1.51,4.69,0,1.38,1.32,2.71,2.68,4.08,4,.35.34.66.85,1.28.56s.46-.85.46-1.34c0-1.91,0-3.82,0-5.73,0-2.19,1.09-3.25,3.31-3.25,5.14,0,10.27,0,15.4,0,2.21,0,3.28,1.07,3.3,3.27,0,1.83,0,3.65,0,5.47,0,.56-.24,1.27.49,1.58s1.13-.38,1.56-.8c1.21-1.19,2.35-2.45,3.59-3.61,1.92-1.79,3.29-1.87,5.23-.09,3.88,3.56,7.47,7.41,11.08,11.24a2.66,2.66,0,0,1-.18,3.89c-1.45,1.49-3,2.92-4.43,4.39-.33.34-.92.62-.62,1.25s.87.43,1.36.44c1.79,0,3.57,0,5.35,0,2.62,0,3.74,1.11,3.75,3.71,0,3.69,0,7.38,0,11.07,0,1.19.4,1.57,1.55,1.52,1.82-.07,3.65,0,5.47,0a4.57,4.57,0,0,1,3.53,1.44c5.1,5.15,10.25,10.26,15.38,15.39a16.2,16.2,0,0,1,1.06,1.27v2.29a3.58,3.58,0,0,1-3.35,1.64c-3.73-.07-7.46,0-11.19,0-1.66,0-1.67,0-1.67,1.68,0,14.49,0,29,0,43.48a4,4,0,0,1-1.64,3.61Zm31.28-60.69a2.12,2.12,0,0,0-.12,1.24q0,26,0,52c0,1.78,0,1.79,1.85,1.79h55.75c1.85,0,1.86,0,1.86-1.81V374.27c0-1.76,0-1.76-1.74-1.76-14.3,0-28.6,0-42.9,0a5.58,5.58,0,0,1-4.37-1.82c-3.07-3.16-6.22-6.26-9.34-9.37C499.15,361.07,498.94,360.66,498.46,360.59Zm38.62-10.09c2.88,0,5.77,0,8.65,0,1,0,1.34-.34,1.32-1.34-.06-2.67,0-5.34,0-8,0-.93-.28-1.29-1.24-1.26-1.61.07-3.23,0-4.84,0a2.9,2.9,0,0,1-3.26-2.19,19.29,19.29,0,0,0-1.38-3.28,3.19,3.19,0,0,1,.55-4.07c1.17-1.23,2.35-2.44,3.59-3.61.62-.58.59-1,0-1.53-2-1.89-4-3.81-5.92-5.77-.58-.58-1-.62-1.55,0-1.2,1.27-2.46,2.46-3.69,3.69a2.93,2.93,0,0,1-3.71.6c-1.14-.55-2.34-1-3.52-1.45a3,3,0,0,1-2.24-3.17c0-1.69,0-3.39,0-5.09,0-.89-.34-1.19-1.2-1.18-2.72,0-5.43,0-8.15,0-1,0-1.25.38-1.23,1.29.05,1.66,0,3.31,0,5a2.82,2.82,0,0,1-2,2.89c-1.23.45-2.43,1-3.63,1.53-1.81.78-2.62.65-4-.72-1.18-1.16-2.37-2.32-3.49-3.53-.58-.62-.94-.61-1.52,0-1.92,2-3.85,3.95-5.86,5.84-.78.74-.64,1.16.05,1.82,1.28,1.23,2.51,2.52,3.74,3.81a2.59,2.59,0,0,1,.5,3.15c-.59,1.26-1.09,2.58-1.58,3.88a3,3,0,0,1-3.11,2.13c-1.69,0-3.39,0-5.09,0-.86,0-1.21.25-1.2,1.16q.06,4.13,0,8.27c0,.79.24,1.16,1.09,1.16q8.78,0,17.56,0c1,0,1-.43.76-1.19a14.26,14.26,0,0,1-.49-6,13.72,13.72,0,1,1,26.75,5.82c-.38,1.38-.38,1.39,1.11,1.39Zm-44.47,10.26a2.3,2.3,0,0,0-1.27.89c-3.21,3.2-6.43,6.4-9.61,9.64a3.75,3.75,0,0,1-2.93,1.23c-1.95,0-3.9.06-5.85,0-1.24-.06-1.7.27-1.7,1.61q.08,20,0,39.92c0,1.28.37,1.68,1.66,1.67,5.93-.06,11.87,0,17.8,0,1.89,0,1.89,0,1.89-1.9v-53Zm10.12-4.54c0,.57.41.76.68,1,2.77,2.79,5.59,5.55,8.34,8.38a3.55,3.55,0,0,0,2.78,1.17q26.9,0,53.8,0c.44,0,.92.16,1.41-.23-.3-.32-.56-.64-.85-.93-2.79-2.79-5.6-5.55-8.35-8.38a3.23,3.23,0,0,0-2.57-1q-27,0-54.05,0Zm-43.55,10.4a4.13,4.13,0,0,0,.63.16q8.78,0,17.53,0A2.23,2.23,0,0,0,479,366c2.87-2.88,5.75-5.74,8.62-8.63.27-.27.72-.47.65-1a2.72,2.72,0,0,0-1.38-.13c-4.36,0-8.74.2-13.08-.07a8,8,0,0,0-7.25,3C464.32,361.77,461.74,364.06,459.18,366.62Zm55.38-16.12c1.61,0,3.22,0,4.82,0a2,2,0,0,0,2-1.12,8.27,8.27,0,0,0,1-5.86,8,8,0,0,0-14.57-2.65,8.24,8.24,0,0,0,.11,8.77,1.75,1.75,0,0,0,1.58.85C511.17,350.48,512.86,350.5,514.56,350.5Z" transform="translate(-1.32)"/><path class="cls-1" d="M563.5,331.69c0,2.59,0,5.17,0,7.76,0,1.88-1.09,3.17-2.69,3.23a2.91,2.91,0,0,1-3-3.11c-.08-3.21,0-6.44,0-9.66,0-2-.07-4.07,0-6.1.11-2.54,2.51-3.92,4.42-2.62a2.82,2.82,0,0,1,1.26,2.49C563.49,326.35,563.5,329,563.5,331.69Z" transform="translate(-1.32)"/><path class="cls-1" d="M473.88,316.68c0,1.39,0,2.79,0,4.19a2.72,2.72,0,0,1-2.47,2.75,2.75,2.75,0,0,1-3.08-2.22,14.51,14.51,0,0,1-.15-3.42c0-1.73-.06-3.47,0-5.2a3,3,0,0,1,2.91-2.94c1.66.05,2.74,1.28,2.77,3.16,0,1.22,0,2.45,0,3.68Z" transform="translate(-1.32)"/></g></g></g></svg>