<svg xmlns="http://www.w3.org/2000/svg" viewBox="0 0 1085.77 1085.6"><defs><style>.cls-1{fill:#fff;}</style></defs><g id="Layer_2" data-name="Layer 2"><g id="Layer_2-2" data-name="Layer 2"><path class="cls-1" d="M567.81,0c26,6.08,50.6,15.4,71.78,32.24C679,63.61,699.4,104.93,701.14,154.89c1,27.1,2.38,54.4-1.08,81.43-3.76,29.43-20.94,48.69-48.61,58.45-6.21,2.18-10.22,5.28-12.73,11.34-4.78,11.53-12.07,21.45-20.57,30.59-9,9.62-7.19,16.71,5,21.32,21.12,8,42.29,15.85,63.41,23.86,47,17.81,66.21,44.68,67.36,95.13.55,24-.16,48,.25,72,.17,9.8-3.87,12.69-13.25,12.68q-198.58-.3-397.17,0c-9.48,0-13.41-3.06-13.14-12.76.81-28.93-1.15-57.89,1.26-86.8,3-35.67,21.24-61,53.72-75,24.92-10.76,50.74-19.44,76.14-29.06,12-4.56,13.63-11.67,4.89-21.47-.24-.26-.49-.51-.73-.76-9.5-9.74-15.08-22-22.14-33.35-7.32-11.78-23.75-10.61-33.88-19.92-14.76-13.57-24.8-29.44-25.7-49.38-1.54-33.82-4.33-68.05,2-101.41C398.94,63.89,440.1,21,506.83,2.87,510.22,2,513.59,1,517,0ZM542,36.49a106,106,0,0,0-50.15,11c-43.2,21.64-67.51,56.11-70.24,105.12-.58,10.25,2.61,11.51,11.17,7.76a49.25,49.25,0,0,1,20.62-4.06c31.79.55,58.76-10.5,80-34.2,7.18-8,11.83-6.75,18.42.49,20.84,22.92,47.07,34,78.07,33.66a54.44,54.44,0,0,1,22.71,4.3c8.68,3.83,10.75,1.49,10.58-7.57C662,88.76,607.7,36.41,542,36.49Zm.07,486.71c53.67,0,107.33-.18,161,.16,9.52.06,13.35-2.72,12.87-12.65-.7-14.44,0-28.94-.3-43.41-.52-21.55-11.31-36.57-30.49-45.75-4.76-2.28-10-3.5-14.71-5.94-8.94-4.69-13.3-2.94-16.42,7.37-8.17,27-17.57,53.65-26.52,80.42-4.27,12.79-4.33,12.8-16.76,6.6-19-9.44-38.07-18.6-56.76-28.55-8-4.24-14.63-4.54-22.74-.2-19,10.16-38.42,19.45-57.7,29-11.87,5.91-12.07,5.84-16.15-6.36Q445.63,468.8,434,433.63c-7.58-22.77-7.58-22.77-30-13.94-23,9.06-34.64,25.65-35,50.24-.17,13.41.51,26.86-.23,40.24-.57,10.33,3.34,13.29,13.38,13.21C435.49,523,488.8,523.2,542.11,523.2Zm69.43-288.6c0-13.19-.11-23.77.05-34.35.09-5.46-1.83-8.19-7.65-9.13-19.72-3.19-38.21-9.9-54.63-21.51-4.61-3.26-8.47-3.85-13.35-.35-16.64,12-35.47,18.66-55.55,22-4.52.74-7.25,2.5-7.12,7.35.66,25-2.17,50.09,1.67,75,5.2,33.68,32.82,56.92,67.12,57,34.86.1,62.11-23.18,68-57.43C612.39,259.42,611,245.7,611.54,234.6Zm-132.09,157c-11.64-.35-17.54,7.43-13.9,18.37,5,15,10.16,29.94,14.94,45,1.86,5.88,4.21,8.48,10.45,4.81a195.4,195.4,0,0,1,17.89-9c5.66-2.57,5.86-6,2.88-10.9-8.79-14.39-17.38-28.92-26.12-43.34C484.18,394.25,483,391.37,479.45,391.61Zm117.2,69.64c6.13,1,6.33-2.89,7.28-5.68,5.62-16.63,11-33.35,16.74-49.95,1.61-4.68,1.84-8.74-3.8-9.82s-11.66-9.29-17.31.14c-8.86,14.76-17.78,29.49-26.58,44.29-1.58,2.65-4,6.11-.2,8.33C580.93,453.35,589.47,457.48,596.65,461.25Zm-24.39-93.08c-.84-4.14-3.77-3.09-5.88-2.55a95.88,95.88,0,0,1-48.06,0c-1.55-.39-4-.38-4.93.54-1.9,1.82,0,3.88,1,5.6,7.74,13,15.63,26,23.27,39,3.46,5.93,6.18,5.62,9.52-.1,7.46-12.77,15.16-25.41,22.73-38.12C570.81,371.09,571.56,369.5,572.26,368.17ZM435.89,201.57c-16.2,10.58-18.77,36.64-6,48.23,1.28,1.16,2.54,2.9,4.37,1.82.92-.54,1.56-2.3,1.56-3.52C435.93,232.87,435.89,217.63,435.89,201.57Zm212.93-.16c0,15.92,0,30.56,0,45.2,0,2-.4,4.74,2.14,5.31,2.24.5,3.54-1.82,5-3.35C667.32,236.2,665,209,648.82,201.41Z"/><path class="cls-1" d="M0,629.25c3.87-.19,7.74-.56,11.61-.56q162.52,0,325.05,0c14.78,0,15,.12,15,14.6q0,213.89,0,427.76c0,14.33-.2,14.48-13.93,14.48q-163.58,0-327.17,0c-3.5,0-7-.47-10.52-.72ZM36.45,856.36c0,59.65.21,119.3-.2,178.94-.07,10.17,3,13.27,13.2,13.22q125.48-.52,250.94,0c10.35,0,13.13-3.39,13.11-13.39q-.42-177.87,0-355.76c0-10.78-3.19-13.73-13.84-13.68q-124.93.6-249.87,0c-10.92-.06-13.68,3.32-13.6,13.85C36.69,738.48,36.45,797.42,36.45,856.36Z"/><path class="cls-1" d="M1085.52,841.12c0,18.36-.37,36.72.16,55.06.24,8.36-3,12-10.93,13.64-11,2.24-21.85,5.64-32.85,8.15-6.45,1.47-7.16,4.23-3.81,9.58,6.16,9.88,11.68,20.16,18,29.94,3.85,6,3.9,10.33-1.49,15.64q-41.13,40.49-81.65,81.58c-4.86,4.91-9,5.47-14.74,1.74-9.78-6.3-20.11-11.76-29.91-18-6.55-4.2-9.11-2.42-10.65,4.74-2.45,11.37-5.75,22.55-8.45,33.87-1.44,6.08-4.67,8.61-11.14,8.57q-58.23-.31-116.47,0c-6.38,0-9.68-2.29-11.1-8.56-2.4-10.67-5.82-21.11-7.93-31.82-1.76-8.89-4.58-11.58-13-5.81-9,6.18-18.87,11.07-28.06,17-5.6,3.61-9.88,3.75-14.84-1.26q-41.34-41.76-83.1-83.12c-4-4-4.22-7.43-1.31-12.09,6.54-10.48,12.53-21.29,19.09-31.76,3.61-5.75,2.83-8.72-4.1-10.3-11.34-2.58-22.51-5.93-33.86-8.49-6.79-1.53-10.32-4.6-10.28-12.14q.35-57.18,0-114.36c0-7.18,2.66-11,9.87-12.46,10.35-2.16,20.53-5.1,30.76-7.83,11.2-3,11.59-4,5.59-14.23-5.51-9.45-11-18.9-16.86-28.15-3.17-5-2.65-8.73,1.63-13q41.76-41.36,83.11-83.11c4.25-4.28,7.93-4.78,13-1.62,10.17,6.36,20.64,12.23,30.88,18.49,5.76,3.53,9.11,2.15,10.74-4.33,2.77-10.94,6.06-21.77,8.34-32.8,1.56-7.52,5.1-10.74,12.9-10.7q56.65.32,113.3,0c7.78,0,11.5,3,13.08,10.49,2.12,10,5,19.84,7.6,29.73,3.32,12.47,3.35,12.45,14.92,5.59,9.4-5.58,18.94-11,28.18-16.8,4.79-3,8.19-2.28,12,1.6q41.41,41.7,83.11,83.11c4.58,4.54,4.84,8.61,1.45,14-6.41,10.14-12.07,20.75-18.56,30.83-3.9,6.06-2.31,8.71,4.18,10.21,10.3,2.4,20.44,5.69,30.84,7.47,10.14,1.73,12.92,6.91,12.51,16.75C1085,804.4,1085.52,822.77,1085.52,841.12ZM960.07,1013.51a48.19,48.19,0,0,0,5.29-3.94c14.77-14.67,29.39-29.5,44.26-44.07,3.8-3.73,3.66-7,1-11.16-4.67-7.47-8.75-15.33-13.57-22.71-3.68-5.63-2.56-10.49-1.08-16.76,5.16-21.78,18.6-32.49,40.35-34,1-.07,2.06-.48,3.1-.64,6.8-1,9.16-4.94,9-11.79-.4-15.16,0-30.34-.14-45.52-.2-24.69,2.82-20.31-20.08-26.27-3.41-.89-6.77-2.21-10.24-2.62-8.49-1-11.51-6.64-15.47-13.57-10-17.4-9.61-32.84,3.7-47.94,1.61-1.82,2.32-4.39,3.82-6.33,3.68-4.75,3.22-8.46-1.23-12.78q-21.67-21-42.66-42.67c-4.39-4.54-8-4.26-12.86-1.13-7.71,5-15.79,9.33-23.67,14-3.46,2.06-6.66,3-10.92,1.52-29.76-10.37-29.8-10.28-37.63-41-.35-1.37-.67-2.75-.92-4.13-1.11-6.16-4.49-8.8-11-8.7q-29.1.44-58.22,0c-6.93-.1-10.27,2.76-11.64,9.39-1.64,7.93-4.26,15.67-5.86,23.61-1.18,5.83-4.7,8.39-9.63,11.34-19,11.34-36.63,11.81-53.5-3.76-1.26-1.16-3.12-1.65-4.56-2.66-4.51-3.2-8.2-2.54-12,1.5-8,8.42-16.55,16.38-24.61,24.78-7.31,7.61-19,13.54-20.91,23.13-2,10.37,8.81,19.14,14.1,28.53,3.39,6,3.21,10.88,1.49,17.7-5.49,21.69-18.88,32.38-40.58,33.93a28.55,28.55,0,0,0-3.1.66c-6.25,1.1-8.78,4.74-8.61,11.13.29,11.28-.3,22.59.16,33.87.44,10.81-4.32,23.58,2.3,31.92,6,7.5,18.86,6.17,28.56,9.19a12.67,12.67,0,0,0,2,.62c6.42.86,8.67,5.55,11.78,10.64C687.8,915.8,686.7,933,672,949.51c-1.15,1.29-1.64,3.15-2.71,4.53-3.5,4.48-2.58,8,1.39,11.9q21.55,21.1,42.63,42.7c4.17,4.29,7.63,5,12.78,1.6,7.63-5.06,15.82-9.28,23.63-14.09,4.27-2.63,8.06-2.29,12.92-1,21.46,5.67,35.11,17.65,36.12,41.07a30.65,30.65,0,0,0,.9,4.14c1.11,5.76,4.45,8.14,10.43,8,13.76-.26,27.52-.06,41.28-.06,26.55,0,26.55,0,33-25.11.79-3.07,1.8-6.1,2.35-9.22.9-5.11,4.42-7.23,8.6-9.74,19.6-11.73,38-11.8,55.48,4C953.28,1010.56,956.81,1011.72,960.07,1013.51Z"/><path class="cls-1" d="M284.69,263.63c-25.28,0-50.58-.43-75.84.24-8.6.22-13.87,6.55-15.1,15.24-.55,3.82-.27,7.75-.27,11.64q0,145.11,0,290.22c0,15-.05,15.08-15.38,15-24-.12-21.82,2.48-21.84-21.33q-.08-144.06,0-288.11c0-38.66,21.68-60.32,60.32-60.39,22.57,0,45.14,0,71,0-11.17-11.16-19.93-21-29.86-29.53-8.42-7.22-7.54-12,.11-19.25,17.18-16.27,16.83-16.64,33.49,0,20,20,39.75,40.15,60,59.8,6,5.82,6,9.48,0,15.32q-35.25,34.39-69.68,69.63c-5.05,5.14-8.36,5.51-13.77.22-19.78-19.33-20-19.19-.57-38.49,6.15-6.1,12.65-11.84,19-17.75Z"/><path class="cls-1" d="M836.14,495.88c3.37-4.19,2.29-7.47,2.29-10.47q.12-99.53,0-199c0-17.39-5.42-22.88-22.6-22.93-23.65-.08-47.3-.32-70.94.12-8.67.16-12-2.83-11.88-11.54.29-31.06-1.84-25.44,25-25.81,20.46-.28,40.94-.19,61.41,0,33.89.28,56.19,22.75,56.24,56.72q.12,100.05,0,200.11v14.6c11.63-11.62,21.56-20.86,30.65-30.86,6-6.66,10.2-7.42,17-.47,17.88,18.35,18.2,18,0,36.2C903.91,522,884.28,541.26,865.07,561c-5.49,5.64-9.15,6.82-15.31.47q-33.9-35-68.84-68.9c-6-5.85-5.7-9.61.13-15.42,18.61-18.57,18.43-18.81,36.85-.27C824,483,829.94,489.39,836.14,495.88Z"/><path class="cls-1" d="M433.4,821.37h25.08c30.34,0,60.68.3,91-.17,9.41-.14,12.31,3.36,12.19,12.35-.41,29.63,1.87,24.81-24.75,25-31,.25-62.09.06-93.13.06H430.2c11.71,11.74,20.94,21.69,31,30.76,6.67,6,6.06,10-.12,16.09-18.44,18.08-18.2,18.32-36.26.26-19.46-19.45-38.76-39.08-58.48-58.27-5.68-5.53-6.71-9.29-.49-15.36q35.24-34.36,69.61-69.59c5.18-5.27,8.5-5.17,13.78,0,20.07,19.56,20.32,19.47.42,39.1-5.74,5.66-12.12,10.69-18.2,16Z"/><path class="cls-1" d="M175.86,735.85c-31.72,0-63.44-.22-95.15.14-8.59.1-11.88-2.64-11.65-11.48.76-30.21-3.72-25.72,25.73-25.84,57.44-.23,114.89-.08,172.33,0,13.76,0,14.43.61,14.5,14.16.15,27.64.77,22.81-22.23,23C231.55,736.06,203.7,735.86,175.86,735.85Z"/><path class="cls-1" d="M175.06,875.72c-31,0-62-.37-93,.21-10.37.2-13.34-3.38-13-13.37.89-27.29-3.37-23.95,24.46-24,57.8-.15,115.59-.06,173.39,0,14,0,14.7.57,14.76,13.92.13,28.25.93,23-23,23.24C230.74,876,202.9,875.73,175.06,875.72Z"/><path class="cls-1" d="M174.65,945.65c-31.36,0-62.73-.24-94.08.15-8.74.11-11.73-2.87-11.51-11.58.76-29.87-3.78-25.61,25.88-25.73,57.44-.21,114.88-.08,172.32,0,13.64,0,14.31.63,14.37,14.33.12,27.58.73,22.59-22.41,22.81C231,945.87,202.84,945.66,174.65,945.65Z"/><path class="cls-1" d="M210.08,805.79c-19.72,0-39.45-.41-59.14.17-9.43.28-12.21-3.18-12-12.26.77-28.73-3.41-25,24.38-25.11,34.85-.19,69.71.22,104.56-.21,9.75-.13,14,2.59,13.89,13-.42,29.76,1.15,23.91-24.19,24.36C241.77,806,225.92,805.79,210.08,805.79Z"/><path class="cls-1" d="M139.12,1015.59c-19.42,0-38.84-.31-58.25.14-8.43.19-12.06-2.22-11.82-11.28.78-30.09-3.75-25.82,25.72-26,34.6-.23,69.2.22,103.79-.22,9.55-.12,13.31,3,13.22,12.67-.28,30.4,1.12,24.17-23.94,24.65C171.6,1015.85,155.36,1015.59,139.12,1015.59Z"/><path class="cls-1" d="M261.76,1015.57c-2.82,0-5.64,0-8.46,0-1.4,0-3.11.35-4.17-.3-11.13-6.79-4-17.66-5.57-26.58-.91-5.11.44-10.1,7.44-10.18,2.11,0,4.23-.1,6.34-.12,24.92-.2,29.4,5.62,24,30.84-.86,4-2.61,6.36-6.95,6.29s-8.45,0-12.67,0Z"/><path class="cls-1" d="M87.23,805.79c-20.42-.11-17.89,1.33-18-20.59-.11-16.67,0-16.68,20-16.65,17.22,0,17.22,0,17.2,19.64C106.38,805.8,106.38,805.8,87.23,805.79Z"/><path class="cls-1" d="M698.63,839.54c.06-77.7,64-141.13,142-140.91,77,.21,140.76,64.42,140.63,141.49C981.15,917,916.9,981.18,840.07,981.29,762.56,981.39,698.57,917.26,698.63,839.54Zm244.72-.64C942,780,895,734.55,836.79,735.91c-55.95,1.32-102,49.61-100.88,105.8,1.12,56.58,48.52,102.57,104.77,101.67C898.68,942.44,944.64,895.67,943.35,838.9Z"/><path class="cls-1" d="M839.81,768.6c38.87-.05,71.81,33,71.45,71.72-.36,38.26-33.31,71-71.4,70.94-38.44-.06-71-32.45-71.26-70.86C768.35,801.33,800.75,768.65,839.81,768.6Zm.27,104.34c19.52-.09,33-13.86,32.86-33.49-.16-18.79-15.22-33.87-33.49-33.54-18,.32-33.67,16.24-33.55,34.16C806,858.45,821.18,873,840.08,872.94Z"/></g></g></svg>