<svg xmlns="http://www.w3.org/2000/svg" viewBox="0 0 1085.18 919.37"><defs><style>.cls-1{fill:#fff;}</style></defs><g id="Layer_2" data-name="Layer 2"><g id="Layer_2-2" data-name="Layer 2"><g id="xax8gz.tif"><path class="cls-1" d="M1042,0c9.12,3.79,18.39,7.33,25.72,14.3,12.51,11.89,17.53,26.45,17.51,43.71q-.32,262-.12,523.93,0,40.21,0,80.44c-.06,34.34-20.13,57.89-54.46,58.92-51.48,1.54-103,.66-154.57.31-12.64-.09-19.38-7.44-19-18,.38-10,7.46-15.83,19.61-16.17,2.82-.07,5.65,0,8.47,0q68.82,0,137.65,0c21,0,29-7.78,29-28.5.1-32.46-.17-64.92.16-97.38.09-8.11-2.44-12-10.85-11.21-2.45.24-4.94,0-7.41,0H51.1c-18.58,0-18.59,0-18.59,18.14q0,43.39,0,86.79c0,25.47,6.61,32.15,31.74,32.15H798c4.23,0,8.51-.27,12.69.22,9.19,1.09,15.06,6.2,15.68,15.65S822,718.7,812.87,720.75a63.46,63.46,0,0,1-13.65,1.12q-67.77.12-135.53.07c-13,0-14.08,1.48-15.11,14.5-2.75,34.55,9.6,62.71,35,85.77,5.29,4.79,10.61,7.66,17.92,7.09a101.85,101.85,0,0,1,18,.13c20.91,2.11,36.73,11.89,45,31.79,3.52,8.44,6.51,17.15,9.21,25.9,4.91,15.9-4.61,30.18-21.08,32a76.9,76.9,0,0,1-8.46.21H339.77c-5.29,0-10.55.06-15.61-2.07-11.53-4.85-17.41-16.37-14.21-28.43.9-3.4,2.3-6.67,3.27-10.05,10-34.8,26.2-52,69.83-49.54,6.86.38,12-1.93,17.06-6.52,24.7-22.41,37.82-49.51,35.71-83.42-1-16.42-1.57-17.4-17.74-17.4-117.88,0-235.76-.24-353.64.14-31.5.1-53.73-12-64.44-42.5V40.22Q11.24,9.65,42.36,0ZM542.47,34.09q-240.9,0-481.79,0c-20.25,0-28.1,7.32-28.11,26.9q-.14,222.29-.26,444.57c0,10.22,5,10.7,12.52,10.35,6.93-.32,14.24,1.73,13.92-10-.67-24.68-.28-49.4-.15-74.09.06-13,6-19.83,16.75-19.74s16.36,6.82,16.42,20.09c.11,23.64.53,47.3-.19,70.92-.31,10.42,3.25,13,13.26,13q437.31-.36,874.63,0c10,0,13.27-2.57,13.25-13q-.5-197.94-.23-395.88c0-13.8,0-13.86-14.23-13.86q-436.26,0-872.51,0c-13.9,0-13.93.06-13.93,14.16q0,124.38,0,248.75c0,3.88.34,7.86-.4,11.61-1.62,8.17-6.84,13.06-15.27,13.65-8,.55-13.82-3.51-16.35-10.83-1.44-4.17-1.18-9-1.18-13.58q-.09-136.54,0-273.09c0-20.72,4.63-25.31,25.62-25.31H1000.1c21,0,25.65,4.62,25.65,25.29q0,208,0,416c0,3.18,0,6.35.08,9.53.05,2.61.79,4.7,3.51,5.9,12,5.3,22.44-.87,22.44-13.46q0-218.58,0-437.16c0-24.19-6.56-30.72-30.71-30.73Q781.77,34.07,542.47,34.09Zm98.79,794.62a19.2,19.2,0,0,0-1.2-3.41c-20.41-28.76-30.1-60.33-25-95.74,1-6.83-3.26-7.6-8.34-7.6q-64.59,0-129.17-.05c-7,0-9,2.6-8.1,9.74,4.17,32.55-4,62.2-22.23,89.28-1.48,2.2-4.16,4-3.26,7.78Zm-99,56H720c2.82,0,5.65-.15,8.46,0,7.08.35,7.37-3.19,5.42-8.65-3.59-10.11-11.53-12.38-21-12.38q-170.85,0-341.72.05c-4.93,0-9.93.21-14.2,3.26-4.95,3.54-8.36,9-7.34,14.4,1.11,5.91,7.66,3.2,11.76,3.21Q451.83,884.86,542.29,884.71Z"/><path class="cls-1" d="M541.65,635.45c-6.68,0-13.4.5-20-.11-9.5-.88-16-7.85-15.91-16.59.12-9.39,5.21-15.57,14.35-16.76a172.36,172.36,0,0,1,44.12,0c9.14,1.17,14.26,7.32,14.4,16.71.13,8.73-6.39,15.77-15.87,16.63C555.75,636,548.67,635.45,541.65,635.45Z"/><path class="cls-1" d="M780.79,345.84c0-18.66-.09-37.32,0-56,.11-18.39,9.18-25,26.4-18.77,4.51,1.62,8.19.48,12.25-.64,22.7-6.23,45.19.78,58.88,18.29,13.91,17.79,15.89,41.12,5.12,60.51-11.18,20.14-32.38,31.41-55.94,27.6-10.9-1.76-12.84,1.85-12.44,11.18a120.09,120.09,0,0,1-1.07,22.1c-1.36,9.59-8.69,15.4-17.4,14.88s-14.89-7-15.73-16.84c-.06-.7-.06-1.41-.06-2.11Q780.81,375.95,780.79,345.84Zm54.72-2.94c12,0,19.9-7.9,20-19.82s-7.68-20-19.55-20.24c-12.46-.22-20.66,7.91-20.52,20.32C815.57,335.07,823.55,342.91,835.51,342.9Z"/><path class="cls-1" d="M546.69,339c0,10.66.24,18.07-.05,25.46-.5,12.42-7.2,19.59-17.66,19.39-10-.2-16.49-7.2-16.81-19.12-.38-14.08-.08-28.19-.26-42.28a74.61,74.61,0,0,0-1.18-12.57c-.69-3.77-1.62-7.8-6.51-8.56s-9.05.52-12.16,4.59c-3.61,4.72-4.64,10.2-4.69,15.93-.1,13.74.12,27.49-.27,41.23-.4,13.57-6.76,20.77-17.51,20.77s-16.9-7.49-16.93-21q-.15-58.66,0-117.34c0-13.17,6.8-21.35,17-21.24s16.89,8.44,17.59,21.22c.36,6.65-2.51,14.59,1.43,19.61s11.83.43,18,1.18c20.36,2.46,34.53,16.36,38.08,38C546.8,316.89,546.9,329.56,546.69,339Z"/><path class="cls-1" d="M594.46,332.72c0-7.74-.08-15.48,0-23.23.12-9.35,1.39-17.62-10.94-22.7-11.07-4.56-9.48-22.81,2.13-27.18,8.53-3.21,8.85-8.11,8.91-15.16.11-13.67,9.06-22.4,19.91-19.75,10.17,2.49,14,10.13,14.24,19.71.15,7.13,1.21,11.85,9.07,15.47,12.27,5.66,11.83,22.53-.6,28.66-7.19,3.54-8.38,8-8.29,14.88.27,19,.09,38,.08,57,0,5.32-.42,10.6-3.24,15.29-4.14,6.9-10.57,9.39-18.1,7.7-8.11-1.82-12.73-7.56-13-15.86-.36-11.61-.09-23.23-.09-34.84Z"/><path class="cls-1" d="M706.64,332.4c0-7.4-.14-14.79,0-22.18.23-9.74,1-18-11.23-23.54-12-5.4-9-23,4.15-28.12,6-2.3,7.45-5.36,7.09-10.85a44,44,0,0,1,.18-8.43c1.1-8.52,8.29-15,16.42-15.05s15.38,6.41,16.44,14.94a68.36,68.36,0,0,1,.26,9.5c-.08,4.64,1,7.86,6.29,9.38,7.42,2.12,12.07,7.55,12.15,15.46.09,8.27-4.29,14.39-12.23,16.53C740,291.7,740,295.67,740,300.42c0,21.13.11,42.25,0,63.38-.09,13.2-5.82,19.95-16.46,20s-16.62-6.75-16.79-19.74C706.54,353.52,706.65,343,706.64,332.4Z"/><path class="cls-1" d="M339,369.52c-13.24-.24-20.36-13.82-13.13-26.28s15.4-24.47,23.2-36.65c12.19-19,24.31-38.06,36.67-56.95,7.06-10.79,16.28-13.7,24.92-8.4,8.95,5.49,10.59,15.89,3.66,26.77-19.31,30.36-38.86,60.58-58.25,90.89C352,365.21,347,369.69,339,369.52Z"/><path class="cls-1" d="M350.1,256.43c.27,4-2.19,8.36-4.86,12.52q-28.82,45-57.78,89.89c-6.87,10.6-16.4,13.57-25,8.36-9.18-5.56-10.69-15.58-3.63-26.64q28.74-45,57.72-89.91c2.3-3.58,4.66-7.12,8.39-9.38,5.23-3.17,10.68-3.52,16.09-.55C346.69,243.83,349.92,248.59,350.1,256.43Z"/><path class="cls-1" d="M227.65,270.75c-.08,10.46-7.09,17.8-16.87,17.69-9.57-.11-16.67-7.86-16.56-18.1s7.43-17.89,17-17.77S227.74,260.32,227.65,270.75Z"/><path class="cls-1" d="M227.54,338.06c-.07,10.2-7.47,18.15-16.72,18-9.5-.19-16.71-8.09-16.6-18.18.11-10.27,7.32-18,16.86-18C220.46,319.83,227.62,327.75,227.54,338.06Z"/></g></g></g></svg>