<svg xmlns="http://www.w3.org/2000/svg" viewBox="0 0 981.39 1078.29"><defs><style>.cls-1{fill:#fff;}</style></defs><g id="Layer_2" data-name="Layer 2"><g id="Layer_2-2" data-name="Layer 2"><path class="cls-1" d="M488.85,0h4.44C501.94,2.12,510,5.67,518,9.67c51.2,25.71,102.53,51.17,153.66,77A56.53,56.53,0,0,0,698.13,93c66.17-.21,132.34-.07,198.51-.14,10,0,20,.61,29.67,3.19C956.1,104,972.47,125,981.39,153.12V807.75c-4.47,17.19-12.22,32.38-26.07,44.09-16.8,14.21-36.66,18.23-57.9,18.22q-133.09,0-266.18,0c-14.52,0-15.24.74-15.26,14.89q-.08,65.44,0,130.9c0,14.88.3,15.15,14.73,15.19,20,0,39.93-.12,59.89.08,15.45.16,25,8.45,25.71,21.76.76,14.07-7.86,23.16-23.88,24.8a161.34,161.34,0,0,1-16.61.57q-184.66,0-369.33,0c-5.17,0-10.37,0-15.51-.43-16.84-1.5-25.85-10.49-25.17-24.79.65-13.59,10.48-21.82,26.69-21.94,20-.15,39.94-.54,59.88.14,10.8.37,14.11-3.53,14-14.12-.47-41-.14-82.08-.2-123.13,0-25.29,2.62-24-24-24-86.88,0-173.76.22-260.64-.11C33,869.76.12,838.36.09,792.29Q-.11,481.13,0,170a78.66,78.66,0,0,1,3.62-24c10.54-33.08,39-52.85,77.4-53q102-.33,204.08,0a52.31,52.31,0,0,0,24.43-5.75C361,61.27,412.67,35.61,464.2,9.72,472.15,5.73,480.17,2.09,488.85,0ZM784.67,140.5l-.18,2.28c1.58.9,3.14,1.83,4.74,2.69,30.38,16.48,32,48,3,66.47-6.34,4.05-7.7,9-7.68,15.72q.21,69.9,0,139.78c0,5.18.24,10.42-.47,15.51a23.65,23.65,0,0,1-22.59,20.7c-10.81.3-20.49-7.25-23-18.69a79.08,79.08,0,0,1-1.44-16.5c-.12-38.09,0-76.18-.2-114.26,0-3.92,2.44-10.55-3.56-11a14.58,14.58,0,0,0-14.28,8.74c-1.25,2.87-.86,6.53-.87,9.84q-.07,62.67,0,125.36c0,36.16-15.8,54.95-51.7,61.95a984.08,984.08,0,0,1-127.38,16c-77.64,4.82-154.29-1.9-230.24-17.58-29.06-6-44.86-26.62-44.92-56.24-.1-43.27-.28-86.54.16-129.8.09-9.14-3.12-14.2-11.15-18.06-21.33-10.22-42.38-21-63.48-31.7-13.11-6.64-20-17.8-20.07-32.12-.07-13.89,6.68-24.73,19-31.72,3.23-1.84,6.48-3.63,9.71-5.44-41.91-1.82-82.92-2.09-123.93-1.68-15,.15-25.4,11.15-26.39,26-.27,4.06-.24,8.14-.24,12.2q0,260.16,0,520.31c0,3,.12,5.92.06,8.87-.15,6.86,2.91,10.38,10,10.11,3.32-.13,6.65,0,10,0H915c3.7,0,7.4,0,11.09-.11,5.41-.08,8.16-2.91,8.33-8.25q.18-6.09.17-12.2,0-257.93,0-515.87c0-4.8.06-9.62-.21-14.41-.89-15.6-11.27-26.19-26.88-26.78-12.18-.46-24.4-.16-36.6-.17ZM491,309.59c3.27-1.39,6.72-2.64,10-4.27q119.52-59.73,239-119.57c2.87-1.44,7.34-2.08,7.62-5.67.36-4.63-4.72-5.09-7.79-6.63Q620.34,113.56,500.89,53.73c-7-3.55-12.76-3.38-19.72.12q-119.35,60-238.91,119.65c-2.9,1.45-7.36,2.18-7.64,5.67-.37,4.59,4.73,5.06,7.81,6.61q119.45,59.88,239,119.57C484.36,306.83,487.45,308,491,309.59Zm.07,456.3q-211.3,0-422.63,0c-4.43,0-8.87.06-13.3.29-3.7.2-6,2.16-7.11,5.85-9.23,29.65,5.77,50.49,36.53,50.49q406.54,0,813.1,0c28.23,0,36.87-8.76,36.94-37.22,0-19.4,0-19.42-19.78-19.42ZM310.12,334.63c0,17,.31,34-.12,51C309.74,396,314.17,401,324.27,403c39.9,7.86,80.17,13.41,120.72,15.26,71,3.23,141.69-.91,211.61-15,11-2.22,15.73-7.14,15.57-18.58-.45-32.51-.12-65-.16-97.56,0-13.88-.74-14.3-13.61-7.87-47.25,23.59-94.71,46.81-141.62,71.07-17.76,9.19-33.67,9.22-51.42,0C419.82,326.62,373.72,304,327.84,281c-17.71-8.88-17.73-8.86-17.74,10.42Q310.1,313,310.12,334.63ZM413.85,950.88c0,22.93.13,45.86-.08,68.79-.07,7.76,2.58,11.51,10.92,11.47q66.57-.3,133.12,0c7.65,0,10.54-3.31,10.52-10.71q-.17-69.35,0-138.69c0-8.69-3.72-11.74-12-11.71q-65.44.25-130.9,0c-8.64,0-11.77,3.7-11.68,12.08C414,905,413.85,928,413.85,950.88Z"/><path class="cls-1" d="M563.15,622.74q111.48,0,222.94,0c17.44,0,29,12,26.32,26.6-2,10.87-10.09,18.36-21.26,19.31-4,.34-8.12.23-12.19.23H347.51c-4.07,0-8.15.11-12.19-.23-12.34-1.05-21.6-10.76-21.71-22.51-.12-12.17,9.49-22.36,22.18-23.32,3.68-.27,7.39-.14,11.08-.14Z"/><path class="cls-1" d="M447.61,516.12c36.92,0,73.85-.28,110.77.13,18.93.22,29.62,18.44,20.64,34.12-4.38,7.65-11.16,11.77-20,11.78q-110.77.09-221.54-.06c-14.11,0-24.34-10.94-23.88-23.84.45-12.62,10.28-22,24.35-22C374.5,516,411.05,516.12,447.61,516.12Z"/><path class="cls-1" d="M215.24,668.73c-8.1,0-16.24.43-24.31-.1a22.85,22.85,0,0,1,.49-45.66c15.83-.53,31.7-.56,47.52.06,12.16.47,21.41,10.8,21.59,22.52.18,12.14-9.31,22.37-22.08,23.13-7.71.46-15.47.09-23.21.09Z"/><path class="cls-1" d="M214.63,516.24c8.11,0,16.24-.4,24.31.1a22.85,22.85,0,0,1,21.59,22.43c.19,11.64-8.91,22.53-21,23.09-16.17.76-32.43.74-48.6,0-12.61-.53-22-11.64-21.61-23.66.42-11.78,9.7-21.28,22.08-22,7.71-.43,15.47-.08,23.2-.08Z"/></g></g></svg>