<svg xmlns="http://www.w3.org/2000/svg" viewBox="0 0 1080.8 1046.66"><defs><style>.cls-1{fill:#fff;}</style></defs><g id="Layer_2" data-name="Layer 2"><g id="Layer_2-2" data-name="Layer 2"><g id="_8cLb0a.tif" data-name="8cLb0a.tif"><path class="cls-1" d="M783.38,1046.66H298.24c-1.32-.48-2.62-1-3.95-1.44-28.61-9.1-45.93-33.22-42.29-58.9,4.42-31.15,26.33-49.73,59-50,10.89-.09,21.79.08,32.68-.17,28.75-.65,53-10.13,68.55-35.93,9.6-15.93,13.88-33.59,16.56-51.81,2.63-17.88,2.71-18-14.91-18-113.17,0-226.34.15-339.5-.13C30.81,830.11.08,799.1.06,755.68q-.15-340,0-680c0-6.31.11-12.59,1.75-18.82C11.26,20.77,39.56.06,80.5.05Q540.73,0,1000.94,0A99.58,99.58,0,0,1,1028,3.38c27.92,7.87,44.12,27.31,52.77,54.06v715c-15.17,42.74-36.52,57.85-81.87,57.88q-55.89,0-111.78,0-111.78,0-223.57,0c-11.77,0-13.41,2.2-11.63,13.81,2.14,13.92,4.78,27.71,10,40.84,11.3,28.38,30.94,46,62.29,49.77,17.21,2.07,34.4.83,51.58,1.6,36.51,1.64,61.45,34.94,51.93,69.7C821.55,1028.79,805.14,1040.74,783.38,1046.66ZM540.59,110.87H127.25c-16.57,0-16.75.14-16.75,16.21q0,252,0,504c0,16.11.23,16.31,16.67,16.31H954.9c15.79,0,16.22-.37,16.22-15.71q0-252.51,0-505c0-15.41-.4-15.75-16.14-15.76Q747.79,110.85,540.59,110.87Zm.75,575.93H52c-14.05,0-14.34.29-14.37,14,0,16.53-.19,33,.05,49.57.42,28.48,14.06,42.27,42.27,42.28q460.88.09,921.74,0c28.21,0,41.84-13.81,42.27-42.28.24-15.82.07-31.64.06-47.46,0-16.14,0-16.16-16.49-16.16ZM540.8,39.07H86.26c-4.92,0-9.85-.11-14.76.13C55,40,42.55,50.93,39.09,67.24c-1.41,6.6-1.49,13.24-1.49,19.92q0,271.56,0,543.1c0,3.17,0,6.33.11,9.49.07,2.54.5,5.54,3,6.3a47.13,47.13,0,0,0,27,.28c6.78-2,4-9.73,4-15q.18-263.64.11-527.28a117.75,117.75,0,0,1,.33-13.69C73.15,81.46,77.94,75.28,87,73.44A79.92,79.92,0,0,1,102.62,72q438.2-.09,876.4,0c25.19,0,30.83,5.77,30.83,31.1q0,261.53,0,523.06c0,3.52.25,7,0,10.54-.69,8.41,3.39,11.53,11.32,10.91,2.45-.19,4.92,0,7.38,0,15.38,0,15.48-.11,15.48-15.16q0-273.66.19-547.32c0-28.13-11.76-46.54-45.68-46.35C846,39.55,693.37,39.07,540.8,39.07Zm-.47,897.12q48.43,0,96.88-.06c2.62,0,6.12,1.33,7.63-1.83,1.23-2.55-1.49-4.38-2.84-6.32-16.87-24.25-25-51.59-28.13-80.6-1.61-14.78-2.68-16-17.29-16q-55.29-.08-110.57,0c-15.88,0-16.5,1-18.36,17.19-3.24,28.25-11.17,54.94-27.46,78.69-1.5,2.2-4.84,4.27-3.33,7.15,1.76,3.36,5.73,1.76,8.69,1.77C477.14,936.23,508.73,936.19,540.33,936.19Zm1.55,39.06v.28H353.12c-15.12,0-30.24-.38-45.34,0-10.68.26-17.17,6.8-17.16,16s6.66,15.54,17.13,16.39c2.79.22,5.62.15,8.43.15q224.61,0,449.23,0a68.55,68.55,0,0,0,11.57-.51c8.86-1.53,14.75-8.71,13.94-17-.87-8.88-6-14-14.95-14.89-4.53-.44-9.13-.36-13.69-.36Q652.07,975.24,541.88,975.25Z"/><path class="cls-1" d="M503.89,143.62q118.11,0,236.21,0a125,125,0,0,1,14.75.45c15.22,1.82,20.86,8.14,20.88,23.54q.07,115.47,0,230.93c0,17,0,16.94,15.8,21.66,13.46,4,27,7.89,40.33,12.26,16.7,5.46,20.86,20.66,9.34,33.83a201,201,0,0,1-15.52,15.78c-5.12,4.69-4.72,8.4.14,13.08,10.9,10.46,21.55,21.2,32.08,32,12.13,12.49,12.25,22.35.19,34.7q-21.72,22.25-44,44c-12.1,11.72-21.65,11.6-33.83-.15Q764,590,748.19,573.67c-5-5.21-9.24-5.24-14.12.06s-9.79,10.1-15,14.86c-14.39,13.21-29.77,9.23-35.63-9.28-4.45-14.06-9-28.12-12.6-42.42-2.37-9.47-7-12.73-17-12.7q-191.4.46-382.8.2c-35.7,0-37.1-1.42-37.11-37.6,0-69.25.11-138.49,0-207.73-.07-33.39-.66-66.77-.86-100.15a144.13,144.13,0,0,1,1.07-17.86c1-8.67,6.23-13.75,14.63-15.86,6.21-1.56,12.52-1.57,18.85-1.57Zm.32,129.52q-109.69,0-219.37,0c-7.1,0-13.33-.16-13.3,10q.31,97,0,194c0,7.54,3.6,9.79,10.43,9.66,10.89-.21,21.8,0,32.69,0H639.54c15.15,0,15.59-.56,11.4-14.57q-9.48-31.8-19.09-63.56c-2.65-8.77-3.76-17.29,3.6-24.54s15.82-6.22,24.61-3.57q31.77,9.6,63.57,19.07c12.28,3.64,13.46,2.84,13.5-9.94q.15-50.61,0-101.24c0-14.6-.75-15.28-15.68-15.29Q612.84,273.11,504.21,273.14Zm-.31-90.44H371.11c-29.16,0-58.32.27-87.47-.15-9.27-.14-12.78,3.2-12.11,12.31.52,7,.1,14,.1,21.07,0,18.11,0,18.13,17.71,18.13H718.27c3.16,0,6.33-.11,9.49-.06,6.15.1,9-3,9-9,0-9.13.13-18.27.09-27.4-.07-14.42-.51-14.87-14.82-14.87Q613,182.68,503.9,182.7Zm176,249.59c.61,2.5,1,4.23,1.45,5.91q13.54,45.41,27.14,90.78c3.29,10.94,3.76,11,12.46,3.36,14.74-13,26.55-12.9,40.8.45,6.4,6,12.4,12.45,18.72,18.54,20,19.28,13.37,19.95,34.69-.56,4.58-4.42,4.71-7.71.06-12.17-10.39-10-20.48-20.26-30.58-30.53-14-14.27-14.08-24.05-.46-39.06,7.18-7.92,7.05-8.65-3.5-11.81-24.88-7.43-49.82-14.7-74.73-22.05-6.73-2-13.43-4.07-20.18-5.95C682.5,428.29,679.05,427.57,679.87,432.29Z"/><path class="cls-1" d="M540.18,758.47c-16.83,0-33.66.16-50.49-.06-13.23-.18-21-7-21.35-18.21-.35-11.35,6.52-19.05,20-19.57q52.55-2,105.14,0c13.39.55,20.24,8.37,19.79,19.74-.45,11.12-8.23,17.85-21.54,18C574.55,758.63,557.37,758.47,540.18,758.47Z"/><path class="cls-1" d="M396.3,452.62c-22.13,0-44.25.11-66.38,0-17-.1-23.87-6.83-24-23.46q-.23-31.61,0-63.21c.12-15.91,6.89-23.61,23-23.76q67.95-.66,135.91,0c15.89.17,23,7.79,23.41,23.8q.78,31.58,0,63.2c-.38,16.48-7.91,23.29-24.54,23.4C441.25,452.73,418.77,452.62,396.3,452.62Zm1-71.75c-14,0-28.07.2-42.11-.07-7.69-.15-11,3.28-10.7,10.73.1,2.8-.07,5.61,0,8.42.22,12.49,1.47,13.86,14.08,13.92,23.16.12,46.32.05,69.48.05,22.61,0,22.44,0,21.52-23.12-.29-7.16-3-10.12-10.14-10C425.38,381,411.34,380.87,397.3,380.87Z"/></g></g></g></svg>