<svg xmlns="http://www.w3.org/2000/svg" viewBox="0 0 906.15 1079.66"><defs><style>.cls-1{fill:#fff;}</style></defs><g id="Layer_2" data-name="Layer 2"><g id="Layer_2-2" data-name="Layer 2"><path class="cls-1" d="M442.91,1079.66q-78.72-29.79-157.44-59.58c-58.1-21.88-116.28-43.55-174.38-65.42C90.27,946.82,84.23,938,84.21,916c0-34.75-.23-69.51.16-104.26.1-8-2.5-11.5-10.23-14.06C28.36,782.56,0,743.32,0,696.24S28.39,610,74.24,594.9c7.81-2.57,10.22-6.2,10.13-14.13-.39-33-.26-66-.13-99,.11-26.36,20.84-41,45.82-32.25q24.32,8.53,48.24,18.19c6.79,2.74,11.44,1.85,16.71-3.48,34.54-34.91,75.05-61,120.56-79.16,7.84-3.14,9.38-4.86,2-11.21-107.53-93.07-99.92-253.74,15.71-336.27C458.61-51.86,642.1,27.37,662.53,180c10.4,77.64-14.6,142.38-73.31,194-7.51,6.59-5.37,8.09,2.23,11.14,45.14,18.15,85.42,43.94,119.73,78.55,5.91,6,11,6.9,18.5,3.75,14.88-6.21,30.09-11.65,45.24-17.19,26.93-9.84,47.65,4.4,47.72,32.8.09,33,0,66,0,99,0,5-.38,9.65,6.12,11.62,42.12,12.76,67.07,41.53,77.37,83.77v37.92c-10.3,42.24-35.26,71-77.37,83.78-6.51,2-6.13,6.63-6.12,11.62q0,52.13,0,104.26c0,23.32-5.8,31.9-27.82,40.2-47.26,17.83-94.6,35.43-141.88,53.23q-94.51,35.58-189,71.32Zm-21.8-264.49c0-58.59-.1-117.19.12-175.78,0-7.18-1.65-11.49-9-14.23q-127.63-47.55-255-95.71c-7-2.66-8.53-.47-8.4,6.22.29,14.73.4,29.48,0,44.2-.22,7.28,2.05,11.06,9.08,14.22,21.34,9.59,33.26,26,33.18,50.24-.11,34-.32,68.07.07,102.1.29,25.54-11.77,42.67-34.44,52.68-5.78,2.56-7.9,5.68-7.85,11.79.23,26.31.27,52.63,0,78.94-.08,6.72,2.47,10,8.66,12.35q126.61,47.23,253,95c10,3.8,10.84.33,10.8-8.33C421,931,421.11,873.07,421.11,815.17Zm64.65-.82c0,58.24.15,116.49-.15,174.73-.05,9.11,1.39,11.74,11,8.11q125.88-47.73,252.09-94.62c7.17-2.67,9.58-6.51,9.47-13.94q-.54-37.89,0-75.79c.09-7.17-1.83-11.1-9-14.29-21.78-9.75-33.54-26.58-33.34-51.22.27-33.68.38-67.37,0-101.05-.31-25.53,11.64-42.77,34.33-52.73,6.41-2.81,8.1-6.46,8-12.77-.28-14.74-.41-29.49,0-44.21.25-8.16-1.9-9.51-9.61-6.6q-125.44,47.38-251.16,94c-9.25,3.42-11.9,8.19-11.82,17.71C486,699.26,485.76,756.81,485.76,814.35ZM600.05,211.7c-.12-79.76-66.26-147-146.19-146.31C371.59,66.07,308,129.2,307.05,211.91c-.95,79.72,66,147,146,146.31C535.29,357.52,597.93,294.54,600.05,211.7ZM257,496.09a53,53,0,0,0,5.52,3q91,34.2,182.09,68.41c7.19,2.72,13.56,1.68,20.34-.88q87.07-32.82,174.2-65.52c3.2-1.21,8.27-1.29,9-4.55.88-4.18-4.2-5.92-7.11-8.13C580,442,511.64,420.11,434.8,424.58c-48.61,2.82-93.59,16.8-135.5,41.08A241.83,241.83,0,0,0,257,496.09ZM126.32,696V673.88c0-20.48,0-20.5-20.27-18.84a52.3,52.3,0,0,0-6.2,1c-25.16,5.21-39.33,26.72-33.23,50.4,5.79,22.47,31.93,37.18,54.85,31.12,4.68-1.24,4.81-4.4,4.82-8C126.31,718.37,126.3,707.16,126.32,696Zm654.24.22v20c0,23.38,2.45,25.32,26,20.54,25.28-5.13,39.76-26.46,33.74-50.07-6.92-27.14-30.8-33.47-54.42-31.56-5.54.45-5.3,4.64-5.31,8.55C780.55,674.46,780.57,685.31,780.56,696.17Z"/></g></g></svg>