<svg xmlns="http://www.w3.org/2000/svg" viewBox="0 0 1080.21 1080"><defs><style>.cls-1{fill:#fff;}</style></defs><g id="Layer_2" data-name="Layer 2"><g id="Layer_2-2" data-name="Layer 2"><g id="rFWtpu.tif"><path class="cls-1" d="M1080.21,766c-7.13,30.38-22.57,55-49.83,71.26-4.83,2.88-9.77,5.93-15.79,4.22a16.93,16.93,0,0,1-12.75-14c-1.37-7.32,1.25-13.19,7.66-17.06,12.57-7.57,23.12-17,29.86-30.36,9.38-18.58,11.74-38.29,3-56.93-13.1-27.92-20.5-57.41-28.56-86.83-19.06-69.59-50.74-133.74-84.95-196.8-8.71-16-16.88-32.38-25.74-48.33-7.61-13.68-20.07-19.88-35.26-18.09-17,2-29.13,11.24-34.3,28.41-1.95,6.51-1.1,12.27,2.07,18.18q13,24.14,25.4,48.53c6,11.79,4,20.26-5.3,25.36-9.91,5.41-18.24,2.21-24.68-9.82-7.63-14.23-15-28.58-22.54-42.89-7.81-14.95-17.87-21.34-32.55-19.62-15.86,1.86-27.66,9.92-33.58,25.11-3.17,8.15-2.79,15.93,2,24.1,8.83,15.15,16.58,30.93,24.61,46.54,5.78,11.24,3.64,20-5.8,25.22s-18,2.06-24.09-9.23c-8-14.84-15.7-29.82-23.49-44.76-7.49-14.35-19.16-20.68-34.2-18.45C665,472.17,651,485,648.76,499.93c-1.39,9.25-.26,18,4.53,26.41,7.1,12.51,13.54,25.4,20.12,38.2,6.83,13.27,5.27,21.79-4.72,27-10.15,5.33-18.37,1.75-25.15-11.16Q599.74,497,556,413.46q-21.76-41.52-43.56-83c-11.3-21.41-28.76-28.32-47.64-19C444.66,321.31,435.34,344.87,445,365c11.9,24.65,25,48.71,37.73,73q56.16,107.31,112.37,214.6c2.76,5.26,5.7,10.48,3.39,16.94-3.95,11-14.83,15.07-26.66,8.95q-39.76-20.55-79.23-41.68c-13.3-7.1-26.65-9.44-39.76-.48-13.7,9.36-18.84,23-17.47,39.33,1.11,13.31,8.68,21.84,20.09,27.5q73.59,36.52,147.23,72.95c30.83,15.27,61.71,30.44,92.49,45.81,20.09,10,35.16,25.22,45.94,44.94,22,40.15,62.53,51.74,103.1,30,27.86-14.9,55.92-29.43,83.94-44,11.87-6.19,21-4,26,6.05,4.77,9.49,1.57,17.61-10.19,23.85-30.08,16-60.07,32.13-90.52,47.36-52.14,26.08-112.41,7-140.38-44.08-8.93-16.32-21.23-28.57-38.07-36.45-13.35-6.26-26.7-12.56-39.72-19.46-7.93-4.2-10-2.67-10,6.27.28,57.59.15,115.18.14,172.77,0,38.21-13.6,57.87-49,70.89h-529C13.36,1067.46-.08,1043.13,0,1006.8Q1,540,.38,73.21C.38,67.59.23,62,.55,56.35,2.16,27.94,28.54,1.51,57,.38,72.76-.24,88.59,0,104.39.26c11.22.17,17.52,6.52,17.4,16.69s-6.42,16-17.88,16.24c-12.29.22-24.59-.16-36.88.15C45.67,33.88,34.1,45.58,33.53,67c-.22,8.43-.06,16.86-.05,25.29,0,15.42,0,15.44,15.52,15.44H574.8c2.46,0,4.93-.17,7.37,0,6.31.46,8.91-2.4,8.8-8.67-.24-13,.23-26-.33-39C590.1,47.44,581.43,38,569,34.85c-6.22-1.58-12.5-1.6-18.83-1.6H203.51c-4.21,0-8.53.37-12.61-.41-8.91-1.69-13.2-7.89-13-16.59C178.05,8,182.36,2.3,190.76.56a41.93,41.93,0,0,1,8.4-.38q181.24,0,362.48.05a66.17,66.17,0,0,1,14.62,1.34c30.1,6.84,49.16,31.93,49.18,64.94q.1,192.32.09,384.61c0,4.06-1,8.31,1,12.28.82-.19,1.7-.11,2-.5,19.68-22.43,44-31.85,73.54-25.7,6.41,1.34,7.77-2.17,9.82-6.52,15.05-32,45-48.06,80-42.35,6.62,1.07,9.74.14,12.67-6.5,11.78-26.66,33.41-40.23,61.89-42,30-1.87,53.09,10.76,67.95,37.26,5.66,10.11,10.78,20.52,16.17,30.77,30.54,58.13,62.25,115.7,83.1,178.34,15.71,47.21,25.62,96.32,46.53,141.83ZM588.42,402l2.53-.38V158.53c0-16.38,0-16.4-16.06-16.4H49.15c-15.66,0-15.67,0-15.67,15.56q0,347.69,0,695.37c0,16.05,0,16.07,16.16,16.07H574.32c2.46,0,4.92-.16,7.37,0,6.79.41,9.41-2.8,9.3-9.46-.23-13-.66-26,.16-39,.61-9.68-3.41-14.34-11.8-18.37C534.1,780.58,488,760.63,444.23,735.84c-5.85-3.32-9.84-2.66-14.79,1.95-33.65,31.39-73.5,46.44-119.68,45.92-101.22-1.14-180.32-91.5-167.64-192.1C152.41,509.93,221.62,444.71,302,441c85.76-4,160.5,52.16,177.87,135,3,14.33,6.65,24,22.24,28,10.27,2.65,19.39,9.67,29.11,14.56,2.29,1.15,4.49,3.68,8.32,1.36-1.64-3.42-3.19-6.87-4.94-10.21-35.53-67.8-71.26-135.49-106.4-203.48-4.81-9.31-10-13.08-20.83-13-97.63.47-195.26.29-292.89.27-29.32,0-44.3-14.83-44.35-43.83q-.07-50.56,0-101.14c0-29.52,14.44-43.83,44.12-43.83q198.08,0,396.15,0c30.52,0,45.07,14.49,45.19,45.2.11,26.69,0,53.38.05,80.07,0,4.55-.22,9.13,2,13.39Q573.05,372.64,588.42,402ZM312.58,1047.64h237c3.86,0,7.75.15,11.58-.2,19.74-1.81,29.64-12.42,29.73-32.34.16-33.35-.16-66.71.2-100.06.09-8.53-2.52-11.63-11.39-11.62q-267.56.3-535.1,0c-8.88,0-11.39,3-11.28,11.59.4,30.89.13,61.8.16,92.69,0,29.55,10.42,39.94,40,40Q193,1047.67,312.58,1047.64Zm-.2-571.76c-6,0-11.94-.06-17.9,0a29,29,0,0,0-5.19.85C232.93,488.54,194.82,521.65,180,577.14c-15,56,1.92,104.1,45.83,141.93C275.64,762,356.33,759.82,404.58,715c4.21-3.91,6.36-7,3.41-13.37-18.45-40-5-78.46,34.2-98.39,5.61-2.85,7.64-5.78,6.57-12.19C437.47,523.56,380.65,475.22,312.38,475.88ZM313,239q-97.44,0-194.89,0c-7.62,0-13.81.08-13.68,10.72.4,33,.28,66,0,99,0,7.8,3.07,10.43,10.66,10.42q141.17-.21,282.33,0c6.34,0,8.45-1.82,8.16-8.5-.83-19.38,5.12-36.7,18.22-51.22,23.83-26.43,56.64-32.56,88.88-16.24,6.56,3.32,8.7,2.66,8.44-4.83-.28-8.41,0-16.85-.06-25.28-.05-13.73-.29-14-14.25-14Q409.93,238.92,313,239Z"/><path class="cls-1" d="M313,931.94c15.1,0,30.19-.19,45.29,0,25.33.39,42.48,17.27,43.24,42.21.74,24.23-15.29,43.63-39.69,44.54-32.59,1.23-65.3,1.22-97.9,0-25.07-.93-40.72-20-39.88-45.14.81-24.24,17.94-41.13,42.61-41.6C282.06,931.71,297.51,932,313,931.94Zm.16,34.51q-22.11,0-44.23,0c-6.12,0-11.74,1.33-11.74,8.85,0,7.14,4.91,9.38,11.38,9.38q43.71-.06,87.42,0c6.33,0,11.31-1.8,11.58-9.14.28-7.75-5-9.11-11.23-9.1Q334.7,966.49,313.11,966.45Z"/><path class="cls-1" d="M232.54,605.79c5.53.39,9.54,3.07,13.11,6.64,8.69,8.68,17.76,17,26,26.17,5.38,6,8.83,5.52,14.29,0,29.32-29.8,59-59.25,88.56-88.78,13.17-13.15,21.74-14.64,30.41-5.51,8.39,8.83,6.8,16.73-6,29.57q-51,51.06-102.09,102.07c-14,14-21.3,14-35.31,0q-20.16-20.07-40.17-40.3c-5.33-5.41-7.63-11.82-4.25-19.21C220.1,609.76,225.77,606.68,232.54,605.79Z"/></g></g></g></svg>