<svg xmlns="http://www.w3.org/2000/svg" viewBox="0 0 1080.14 1080.28"><defs><style>.cls-1{fill:#fff;}</style></defs><g id="Layer_2" data-name="Layer 2"><g id="Layer_2-2" data-name="Layer 2"><g id="zwZxE9.tif"><path class="cls-1" d="M23.2,1080c-16.74-8.54-22-22.48-22-40.8,0-33.92,1-67.4,13.77-99.51,16.5-41.57,43.4-74.51,81.39-98,8.72-5.38,10.79-8.43,3.83-17.74-31.41-42-32.51-98.26-4-142.4a126.29,126.29,0,0,1,131.6-55.39c50.49,10.33,90.87,51.95,99.17,103,5.89,36.19-2.58,69.13-24.95,98.14-4.45,5.77-4.17,8,2.06,11.62a185.81,185.81,0,0,1,51.26,43.32c4.76,5.81,7.22,4.26,11-.82,18.18-24.63,40.38-44.89,67.14-59.91,6.42-3.61,7.44-6.46,2.42-12.75-65.31-81.86-20.38-199.65,83-218,73.64-13,147.1,43,154.86,117.59,3.93,37.68-6.07,70.92-29.51,100.2-4.83,6-4.59,9.06,2.1,12.82a209.45,209.45,0,0,1,69,62.4c3.76,5.32,6.48,5.16,10.36.31a183.38,183.38,0,0,1,54.48-45.9c6.81-3.78,3.36-6.75.53-10.54C763.17,804.12,754,778,754.29,748.25c.58-58.93,43.32-110.91,101.41-122.25,51.83-10.11,103.28,12.19,131.82,57.12a124.73,124.73,0,0,1-5.41,141.58c-5.85,7.84-5.58,10.87,3,16.28,50.95,31.93,81.92,77.82,93.17,136.95.45,2.41,1.11,4.77,1.68,7.15,0,29.88-.13,59.76.14,89.65,0,4.53-.87,6.21-5.42,5.31a21.9,21.9,0,0,0-4.21,0Zm516.31-64H665c26.92,0,28.12-1.49,23.36-28.75C674.53,908.09,612.94,857.41,532.57,859c-75.7,1.53-141.72,69.14-142.14,145.08-.05,9.25,2.73,12.12,12,12C448.12,1015.76,493.81,1016,539.51,1016Zm345.31,0q55.83,0,111.64,0c21.17,0,20.37,2.47,18-19.64-6.18-57.39-49.12-104.66-107-116.87-56.52-11.92-116,15.23-144.47,65.46-8.06,14.23-12.88,28.55-8.31,45a38.29,38.29,0,0,1,.85,13.6c-.88,9.51,2.53,12.78,12.44,12.64C806.88,1015.66,845.85,1016,884.82,1016Zm-689.71,0H309c15.13,0,15,0,15.51-14.6a95.78,95.78,0,0,1,1.55-15.7c3-15,1.79-28.62-7-42.08-31.86-48.57-75.91-71-134.09-65.69-61.52,5.59-116.57,65-117.26,126.78-.1,8.82,2.79,11.53,11.48,11.45C117.78,1015.77,156.45,1016,195.11,1016ZM539.67,792.66c38.49.07,69.17-30.22,69.33-68.46.16-37.91-30.91-69.37-68.69-69.57S471.06,685.81,471,723.56A68.52,68.52,0,0,0,539.67,792.66ZM202.18,689.83c-34.43,0-60.47,26.19-60.41,60.68.06,33.46,28.13,61.32,61.16,60.69a61.47,61.47,0,0,0,60.12-60.92C263.18,716.3,236.49,689.8,202.18,689.83Zm738.53,60.76c.18-34.49-25.11-60.42-59.26-60.75-33.93-.33-61.77,26.45-62.16,59.81-.39,32.69,28.19,61.48,61.13,61.6C913.11,811.37,940.52,783.79,940.71,750.59Z"/><path class="cls-1" d="M1080,352.27c-7,28.54-20.79,52.71-44.83,70.51-22.15,16.4-47.34,22.46-74.32,22.48q-142.89.12-285.77-.1c-8.58,0-15.23,2.15-21.87,7.87-29.28,25.24-59,50-88.63,74.79-17.21,14.36-31.92,14.35-49.13,0-30-25-59.85-50-89.44-75.46-6.08-5.22-12.22-7.16-20-7.15q-143.4.26-286.81.11c-36.61,0-68.17-11.69-92.89-39.66C12.64,390.18,5.14,371.84,0,352.27V90.7C4.88,75,10.2,59.49,20,45.85,37.57,21.24,62.19,7.67,90.7,0H989.3c15.7,4.94,31.24,10.05,44.85,19.9,24.5,17.74,38.25,42.23,45.85,70.8ZM810.41,379.13q75.39,0,150.79,0c35.9,0,54.7-18.66,54.75-54.5q.13-102.81,0-205.63c0-35.84-19-54.94-54.64-54.94Q540,64,118.76,64.05c-35.73,0-54.68,19-54.71,54.87q-.12,102.81,0,205.63c0,35.9,18.8,54.56,54.67,54.57,100.18,0,200.36.19,300.53-.18,14.58-.06,26.54,3.85,37.52,13.4,24.38,21.22,49.48,41.63,73.85,62.88,7,6.07,11.68,6.24,18.74.09,25.17-21.93,51-43.13,76.32-64.85,9.29-8,19.54-11.52,31.82-11.45C708.47,379.31,759.44,379.13,810.41,379.13Z"/><path class="cls-1" d="M408.12,190.57q-123.89,0-247.79,0c-19.47,0-33.37-12.23-34.42-29.74-1.25-20.8,13-35,35.53-35q223-.07,446,0c17.22,0,34.45-.13,51.67.05,19.49.2,33.23,13.42,33.43,31.82.2,19-13.55,32.8-33.48,32.83Q533.6,190.7,408.12,190.57Z"/><path class="cls-1" d="M718.1,252.39q101.68,0,203.36.07c16.57,0,29.7,11,32.33,26.19a32.65,32.65,0,0,1-21.34,36.85c-4.43,1.6-8.94,1.63-13.5,1.63q-200.73,0-401.44,0c-21.16,0-35.15-12.87-35.28-32-.14-19.76,13.81-32.66,35.68-32.67Q618,252.32,718.1,252.39Z"/><path class="cls-1" d="M273,317.14c-37.24,0-74.48.06-111.72,0-21.23,0-35.23-12.79-35.4-31.95-.18-19.71,13.87-32.75,35.63-32.76q112.25-.09,224.49,0c20.86,0,35.58,13.26,35.92,31.94.34,18.86-14.82,32.72-36.15,32.77C348.17,317.2,310.58,317.14,273,317.14Z"/><path class="cls-1" d="M854.32,190.57c-22.14,0-44.28.14-66.41,0-19.91-.16-33.65-13.82-33.46-32.82.18-18.36,14-31.76,33.37-31.83q66.42-.22,132.84,0c19.91.07,33.67,13.82,33.47,32.8-.2,18.42-13.92,31.69-33.39,31.85C898.6,190.71,876.46,190.57,854.32,190.57Z"/></g></g></g></svg>