<svg xmlns="http://www.w3.org/2000/svg" viewBox="0 0 603.4 1017.71"><defs><style>.cls-1{fill:#fff;}.cls-2,.cls-3,.cls-4,.cls-5{fill:none;stroke:#fff;stroke-miterlimit:10;stroke-width:10px;}.cls-3{stroke-dasharray:11.42 11.42;}.cls-4{stroke-linecap:round;}.cls-5{stroke-dasharray:11.08 11.08;}</style></defs><g id="Layer_2" data-name="Layer 2"><g id="Layer_2-2" data-name="Layer 2"><g id="_6for6o.tif" data-name="6for6o.tif"><path class="cls-1" d="M153,939.61c-5.72-1.73-9.65-5.25-10.94-11.24-.62-2.89-.2-5.86-.23-8.8,0-.93.55-1.29,1.42-1.29l2.21,0H343.93c1,0,2.05.1,3.08.15v10.16a15.19,15.19,0,0,1-11.05,11Zm91.59-14H152.64c-.59,0-1.18,0-1.77,0-1.32-.11-1.73.43-1.35,1.7a6.73,6.73,0,0,0,1.23,2.32c1.84,2.3,4.35,2.75,7.12,2.75q86.61,0,173.22,0c.59,0,1.18,0,1.76,0a7.21,7.21,0,0,0,5.74-3.27c.62-.92,1.3-2,.78-3.05-.43-.86-1.62-.39-2.46-.39Q290.73,925.62,244.55,925.63Z" transform="translate(-1.32)"/><path class="cls-1" d="M244.23,911.5H152.09c-3.25,0-3.26,0-3.26-3.26V794.31c0-3.24,0-3.25,3.27-3.25H336.83c3.25,0,3.26,0,3.26,3.26V908.25c0,3.24,0,3.25-3.27,3.25Zm.07-7.38h85.52c2.88,0,2.89,0,2.89-2.93V815.51c0-2.93,0-2.94-2.89-2.94H159.21c-3,0-3,0-3,3v85.46c0,3,0,3,3,3Zm-.06-98.93h69.84c5.45,0,10.9,0,16.35,0,.71,0,1.76.29,2-.49a10,10,0,0,0,.1-5.44c-.37-1.5-2-.78-3.1-.78q-85-.06-169.95,0c-.52,0-1,0-1.55,0-1.2-.08-1.8.42-1.73,1.66,0,.66,0,1.33,0,2,0,3.1,0,3.1,3.16,3.1Z" transform="translate(-1.32)"/><path class="cls-1" d="M283.36,847.64c-.06.89-.64,1.14-1.13,1.43-1.65,1-3.29,1.95-5,2.88a1.82,1.82,0,0,0-1,2.14,33.3,33.3,0,0,1,0,8.58,1.81,1.81,0,0,0,1.09,2.11c1.61.89,3.16,1.89,4.78,2.75,1.24.65,1.5,1.38.76,2.63q-4.53,7.71-8.93,15.48c-.69,1.22-1.39,1.5-2.64.75-1.95-1.17-4-3-6-3.06s-3.6,2.49-5.63,3.09c-4.22,1.25-4.85,4-4.51,7.83.27,3.09.05,3.11-3.12,3.12-5.3,0-10.6,0-15.9,0-1.73,0-2.78-.43-2.44-2.32.82-4.56-.51-7.8-5.3-9.05a1.26,1.26,0,0,1-.57-.33c-3.05-3.25-6-2.37-9.14,0-2.56,1.88-2.71,1.66-4.26-1-2.71-4.72-5.4-9.46-8.18-14.13-.86-1.44-.88-2.53.82-3.08,4.8-1.58,5.73-4.81,5.64-9.66-.09-4.06-.93-6.41-4.71-8-3-1.27-2.87-1.58-1.26-4.36,2.69-4.65,5.41-9.27,8-14,.87-1.57,1.82-2.09,3.24-.87,3.58,3.07,7.1,3.53,10.64,0a1.94,1.94,0,0,1,.95-.54c3.88-.81,4.62-3.46,4.11-6.87-.08-.51,0-1,0-1.55-.21-1.76.61-2.28,2.3-2.26,5.67.07,11.34.08,17,0,1.77,0,2.5.67,2.21,2.32-.82,4.56.52,7.8,5.31,9a1.21,1.21,0,0,1,.57.33c3.05,3.26,6,2.37,9.14,0,2.57-1.88,2.7-1.67,4.26,1,2.63,4.59,5.29,9.17,7.93,13.76C282.79,846.46,283.1,847.13,283.36,847.64Zm-59,26.14a3,3,0,0,1,2.19,1.32c2.59,2.7,5.53,5.15,9.14,6,4.23,1,6.29,2.8,5.38,7.26-.18.86.14,1.5,1.24,1.68,4.79.75,5.47.22,5.49-4.54a3.23,3.23,0,0,0,0-.44c-.26-1.73.56-2.53,2.2-2.89a23.49,23.49,0,0,0,10.35-5.22c3.74-3.21,3.74-3.26,8.16-.86,1.1.59,1.73.65,2.49-.55,2.59-4.12,2.64-4.09-1.53-6.52a1.14,1.14,0,0,0-.19-.1c-1.78-.63-2-1.79-1.45-3.48,1.18-3.7,1.87-7.66.59-11.29-1.5-4.29-.22-6.55,3.73-8,1.1-.39,1.12-1.11.52-2.08-3.19-5.17-1.81-4.73-6.6-2-1.54.88-2.57.91-3.81-.47-2.48-2.8-5.49-5.2-9.1-6-4.24-1-6.3-2.79-5.39-7.26.18-.85-.14-1.5-1.24-1.67-4.78-.76-5.47-.22-5.49,4.53a3.23,3.23,0,0,0,0,.44c.26,1.73-.56,2.53-2.19,2.89a23.58,23.58,0,0,0-10.36,5.22c-3.74,3.2-3.74,3.25-8.15.86-1.1-.59-1.74-.64-2.49.56-2.6,4.11-2.7,4.17,1.55,6.46,1.78,1,2.15,2,1.56,3.85a22.13,22.13,0,0,0-.07,13.47c.63,2,.3,3.14-1.67,4.18-3.94,2.07-3.78,2.15-1.63,6,.9,1.59,1.74,1.66,3.12.76C222,875.07,223.29,874.41,224.4,873.78Z" transform="translate(-1.32)"/><path class="cls-1" d="M177.12,858.13c0-2.73-.06-5.45,0-8.17.05-1.5-.44-2.13-2-2.08-2.64.09-5.3,0-8,0s-4.22-1.45-4.17-3.76,1.55-3.57,4.12-3.59c5.16,0,10.31,0,15.47,0a4,4,0,0,0,1.09,0c.94-.26.55,1.77,1.5,1a39.62,39.62,0,0,0,4-4.09c.43-.49-.19-.93-.53-1.29a24.18,24.18,0,0,0-2-2c-.78-.66-1.39-2.5-2.76-.51-.19.26-1,.14-1.49.14-5,0-10,0-15,0-2.76,0-4.31-1.32-4.35-3.59s1.51-3.74,4.39-3.77c2.58,0,5.16-.07,7.73,0,1.57.05,2.07-.58,2-2.08-.08-2.72,0-5.45,0-8.17,0-.41-.11-.95.39-1.16s.81.25,1.11.54c6.82,6.81,13.63,13.65,20.48,20.43,1.2,1.2.42,1.9-.4,2.71-6,6-11.93,12-18,17.92-1.4,1.36-1.4,2.11,0,3.48,6,5.8,11.77,11.76,17.71,17.57,1.4,1.37,1.6,2.22.08,3.7-6.53,6.37-12.94,12.87-19.41,19.31-.44.44-.84,1.28-1.56,1s-.39-1.17-.39-1.79c0-2.5-.08-5,0-7.51.05-1.5-.45-2.12-2-2.07-2.65.09-5.3.05-8,0s-4.22-1.46-4.17-3.77,1.55-3.57,4.13-3.58c5.08,0,10.16,0,15.24,0a5.35,5.35,0,0,0,1.32,0c.94-.25.54,1.77,1.49,1a45.56,45.56,0,0,0,4-4.09c.36-.4-.08-.82-.39-1.13-.71-.74-1.41-1.51-2.18-2.19s-1.41-2.43-2.76-.5c-.19.26-1,.14-1.5.14-5,0-10,0-15,0-2.76,0-4.3-1.32-4.34-3.6s1.51-3.74,4.39-3.76c2.58,0,5.16-.08,7.73,0,1.58.06,2.06-.58,2-2.08C177.06,863.87,177.12,861,177.12,858.13Z" transform="translate(-1.32)"/><path class="cls-1" d="M311.8,858.51c0,2.79.06,5.59,0,8.39,0,1.45.55,1.94,2,1.91,2.73-.07,5.45,0,8.18,0,2.52,0,4,1.48,4,3.71s-1.52,3.62-4.08,3.63c-5.16,0-10.31,0-15.47,0a4.56,4.56,0,0,0-1.1,0c-.94.26-.61-1.71-1.5-1a38.74,38.74,0,0,0-4,4.09c-.44.49.15.94.5,1.29.71.75,1.43,1.49,2.18,2.19s1.4,2.21,2.61.37c.17-.26,1-.15,1.49-.15,5,0,10,0,15,0,2.77,0,4.31,1.32,4.36,3.59s-1.51,3.75-4.39,3.77c-2.58,0-5.16.08-7.73,0-1.58-.06-2.06.58-2,2.08.08,2.65,0,5.3,0,7.95,0,.48.2,1.11-.4,1.37s-.8-.26-1.1-.56Q300,890.91,289.8,880.68c-1.23-1.22-.35-1.91.45-2.7l17.66-17.65c2-2,2-2-.07-4-5.84-5.83-11.64-11.69-17.53-17.46-1.32-1.29-1.29-2.1,0-3.38,6.52-6.39,12.94-12.88,19.41-19.32.49-.48.92-1.43,1.73-1,.63.3.32,1.2.33,1.84,0,2.35.1,4.71,0,7.06-.09,1.78.46,2.54,2.35,2.44,2.57-.14,5.16-.07,7.73,0s4.06,1.42,4.07,3.64-1.49,3.68-4,3.7c-5.16,0-10.32,0-15.47,0-.74,0-1.59.26-2-.83-.37-.92-.79,0-1.09.2-4.31,3.64-4.3,4.47,0,8.09.28.23.74.93,1,.33.68-1.61,2-1,3-1,4.71-.08,9.43,0,14.14,0,2.9,0,4.46,1.36,4.42,3.74s-1.58,3.6-4.32,3.63c-2.51,0-5,.08-7.51,0-1.71-.08-2.4.44-2.32,2.24C311.9,852.91,311.8,855.71,311.8,858.51Z" transform="translate(-1.32)"/><path class="cls-1" d="M262.29,858.31a17.83,17.83,0,1,1-17.75-17.78A17.63,17.63,0,0,1,262.29,858.31ZM244.55,848A10.39,10.39,0,1,0,254.85,858,10.56,10.56,0,0,0,244.55,848Z" transform="translate(-1.32)"/></g><path class="cls-1" d="M1.32,998c0-8.53,4.19-13,10.32-13S22,989.48,22,998c0,8.76-4.19,13.19-10.31,13.19S1.32,1006.77,1.32,998Zm13.81,0c0-4.81-1.32-7.22-3.49-7.22S8.15,993.2,8.15,998c0,5,1.31,7.45,3.49,7.45S15.13,1003.05,15.13,998Z" transform="translate(-1.32)"/><path class="cls-1" d="M25.75,985.52h9.47c5.43,0,10.08,2,10.08,8.38,0,6.16-4.81,8.84-10.08,8.84h-2.8v8H25.75Zm9.16,12c2.63,0,3.88-1.32,3.88-3.57s-1.4-3.11-3.88-3.11H32.42v6.68Z" transform="translate(-1.32)"/><path class="cls-1" d="M49.8,985.52H66.94v5.58H56.47v4h8.92v5.59H56.47v4.5H67.33v5.58H49.8Z" transform="translate(-1.32)"/><path class="cls-1" d="M72.06,985.52h9.39c5.43,0,10.08,1.86,10.08,8.14,0,6.09-4.65,8.61-10.08,8.61H78.73v8.46H72.06ZM81,997c2.64,0,4-1.16,4-3.34s-1.4-2.87-4-2.87H78.73V997Zm3.77-.89,8.18,14.62H85.48l-5.23-10.2Z" transform="translate(-1.32)"/><path class="cls-1" d="M100.69,985.52h8.06l7.61,25.21H109.3l-2.84-12.26c-.54-2.4-1.28-5.43-1.82-8h-.15c-.55,2.56-1.21,5.59-1.75,8l-2.83,12.26H93.08Zm-2.14,14.7h12.26v5.16H98.55Z" transform="translate(-1.32)"/><path class="cls-1" d="M124.66,991.1H117.4v-5.58h21.18v5.58h-7.25v19.63h-6.67Z" transform="translate(-1.32)"/><path class="cls-1" d="M142.18,1005.15h5.75v-14h-5.75v-5.58h18.16v5.58H154.6v14h5.74v5.58H142.18Z" transform="translate(-1.32)"/><path class="cls-1" d="M165.22,985.52H172l4.23,11.25,2.06,5.66h.15a90,90,0,0,1-.93-9.62v-7.29h6.36v25.21h-6.75l-4.23-11.29-2.05-5.62h-.16a94.19,94.19,0,0,1,.93,9.62v7.29h-6.36Z" transform="translate(-1.32)"/><path class="cls-1" d="M187.72,998.32c0-8.53,5.31-13.27,11.87-13.27a10.26,10.26,0,0,1,7.52,3.26l-3.64,4.11a5,5,0,0,0-3.88-1.63c-2.76,0-5,2.72-5,7.3s1.75,7.37,5.36,7.37a2.94,2.94,0,0,0,1.7-.47v-3.49H198.5v-5.43h9.08v12a12.67,12.67,0,0,1-8,3.11C193.07,1011.2,187.72,1006.93,187.72,998.32Z" transform="translate(-1.32)"/><path class="cls-1" d="M234.42,1007.59l3.8-4.58a10.94,10.94,0,0,0,6.44,2.45c2,0,2.79-.66,2.79-1.48,0-1.47-1.32-1.78-3.65-2.75l-3.14-1.32c-2.91-1.09-5.31-3.38-5.31-7,0-4.31,3.87-7.84,9.61-7.84a12.7,12.7,0,0,1,8.62,3.38l-3.34,4.19a9.11,9.11,0,0,0-5.66-1.83c-1.48,0-2.49.55-2.49,1.71s1.44,1.59,4,2.52l2.91,1.2c3.37,1.25,5.31,3.42,5.31,6.91,0,4.27-3.56,8.07-10.08,8.07A15.2,15.2,0,0,1,234.42,1007.59Z" transform="translate(-1.32)"/><path class="cls-1" d="M264.28,1002.39l-8-16.87h7.14l2.09,5.51c.66,1.94,1.36,3.72,2.06,5.74h.15c.7-2,1.44-3.8,2.14-5.74l2.09-5.51h7l-8,16.87v8.34h-6.67Z" transform="translate(-1.32)"/><path class="cls-1" d="M281,1007.59l3.8-4.58a10.94,10.94,0,0,0,6.44,2.45c2,0,2.79-.66,2.79-1.48,0-1.47-1.32-1.78-3.65-2.75l-3.14-1.32c-2.91-1.09-5.31-3.38-5.31-7,0-4.31,3.88-7.84,9.62-7.84a12.69,12.69,0,0,1,8.61,3.38l-3.34,4.19a9.11,9.11,0,0,0-5.66-1.83c-1.47,0-2.48.55-2.48,1.71s1.43,1.59,3.95,2.52l2.91,1.2c3.38,1.25,5.32,3.42,5.32,6.91,0,4.27-3.57,8.07-10.09,8.07A15.2,15.2,0,0,1,281,1007.59Z" transform="translate(-1.32)"/><path class="cls-1" d="M310.82,991.1h-7.25v-5.58h21.18v5.58h-7.26v19.63h-6.67Z" transform="translate(-1.32)"/><path class="cls-1" d="M329.05,985.52h17.14v5.58H335.72v4h8.92v5.59h-8.92v4.5h10.86v5.58H329.05Z" transform="translate(-1.32)"/><path class="cls-1" d="M351.08,985.52h6.79l2.05,8.22.7,3.26h.16l.69-3.26,2.06-8.22h6.79v25.21h-5.51v-5.93c0-3,.54-9.86.85-12.8h-.11l-2.14,7.48-1.31,4.58h-3l-1.4-4.58L355.81,992h-.15c.31,2.94.85,9.81.85,12.8v5.93h-5.43Z" transform="translate(-1.32)"/><path class="cls-1" d="M402.2,1000a23.76,23.76,0,0,1,8-17.77l3.68,2.87c-4.38,4.54-6.2,8.93-6.2,14.9s1.82,10.35,6.2,14.89l-3.68,2.87A23.74,23.74,0,0,1,402.2,1000Z" transform="translate(-1.32)"/><path class="cls-1" d="M420.19,998c0-8.53,4.19-13,10.32-13s10.32,4.43,10.32,13c0,8.76-4.19,13.19-10.32,13.19S420.19,1006.77,420.19,998ZM434,998c0-4.81-1.32-7.22-3.49-7.22S427,993.2,427,998c0,5,1.32,7.45,3.49,7.45S434,1003.05,434,998Z" transform="translate(-1.32)"/><path class="cls-1" d="M443.85,1007.59l3.8-4.58a10.94,10.94,0,0,0,6.44,2.45c2,0,2.79-.66,2.79-1.48,0-1.47-1.31-1.78-3.64-2.75l-3.14-1.32c-2.91-1.09-5.32-3.38-5.32-7,0-4.31,3.88-7.84,9.62-7.84a12.66,12.66,0,0,1,8.61,3.38l-3.33,4.19a9.14,9.14,0,0,0-5.67-1.83c-1.47,0-2.48.55-2.48,1.71s1.44,1.59,4,2.52l2.91,1.2c3.37,1.25,5.31,3.42,5.31,6.91,0,4.27-3.57,8.07-10.08,8.07A15.22,15.22,0,0,1,443.85,1007.59Z" transform="translate(-1.32)"/><path class="cls-1" d="M470.38,1014.84c4.38-4.54,6.21-8.92,6.21-14.89s-1.83-10.36-6.21-14.9l3.69-2.87a23.67,23.67,0,0,1,0,35.53Z" transform="translate(-1.32)"/><path class="cls-1" d="M387.07,443.21h4.72c4.7,0,8,2.33,8,8.14s-3.3,8.28-7.75,8.28h-5Zm4.49,12.93c2.1,0,3.79-1,3.79-4.79s-1.69-4.65-3.79-4.65h-.15v9.44Z" transform="translate(-1.32)"/><path class="cls-1" d="M402.72,443.21h11.16v3.64h-6.82v2.58h5.81v3.63h-5.81V456h7.07v3.64H402.72Z" transform="translate(-1.32)"/><path class="cls-1" d="M416.86,457.58l2.47-3a7.13,7.13,0,0,0,4.2,1.59c1.31,0,1.81-.43,1.81-1,0-1-.86-1.16-2.37-1.79l-2.05-.86a4.81,4.81,0,0,1-3.46-4.57c0-2.8,2.53-5.1,6.27-5.1a8.24,8.24,0,0,1,5.6,2.2l-2.17,2.72a6,6,0,0,0-3.69-1.18c-1,0-1.61.35-1.61,1.11s.93,1,2.57,1.64l1.9.78c2.2.81,3.46,2.23,3.46,4.5,0,2.78-2.33,5.25-6.57,5.25A9.9,9.9,0,0,1,416.86,457.58Z" transform="translate(-1.32)"/><path class="cls-1" d="M432.31,443.21h4.39v6.12h.1l4-6.12h4.8l-8.94,12.23v4.19h-4.39Zm5.61,9.4,2.52-3.39,5.61,10.41h-4.8Z" transform="translate(-1.32)"/><path class="cls-1" d="M451.45,446.85h-4.73v-3.64h13.79v3.64h-4.72v12.78h-4.34Z" transform="translate(-1.32)"/><path class="cls-1" d="M462.05,451.35c0-5.56,2.73-8.44,6.72-8.44s6.71,2.88,6.71,8.44-2.72,8.58-6.71,8.58S462.05,457.05,462.05,451.35Zm9,0c0-3.14-.86-4.7-2.27-4.7s-2.28,1.56-2.28,4.7.86,4.84,2.28,4.84S471,454.63,471,451.35Z" transform="translate(-1.32)"/><path class="cls-1" d="M478,443.21h6.17c3.53,0,6.56,1.32,6.56,5.46s-3.13,5.76-6.56,5.76H482.3v5.2H478Zm6,7.78c1.72,0,2.53-.86,2.53-2.32s-.91-2-2.53-2H482.3V451Z" transform="translate(-1.32)"/><path class="cls-1" d="M511.58,443.21h5.26l4.95,16.42h-4.6l-1.84-8c-.36-1.57-.84-3.54-1.19-5.2h-.1c-.35,1.66-.78,3.63-1.14,5.2l-1.84,8h-4.45Zm-1.39,9.57h8v3.36h-8Z" transform="translate(-1.32)"/><path class="cls-1" d="M523.4,443.21h6.16c3.53,0,6.56,1.32,6.56,5.46s-3.13,5.76-6.56,5.76h-1.82v5.2H523.4Zm6,7.78c1.71,0,2.52-.86,2.52-2.32s-.91-2-2.52-2h-1.62V451Z" transform="translate(-1.32)"/><path class="cls-1" d="M538.54,443.21h6.17c3.53,0,6.56,1.32,6.56,5.46s-3.13,5.76-6.56,5.76h-1.82v5.2h-4.35Zm6,7.78c1.72,0,2.53-.86,2.53-2.32s-.91-2-2.53-2h-1.61V451Z" transform="translate(-1.32)"/><path class="cls-1" d="M417.59,484.08a14.54,14.54,0,0,1,5.5-11.5l1.62,1.36a13.45,13.45,0,0,0,0,20.29l-1.62,1.36A14.55,14.55,0,0,1,417.59,484.08Z" transform="translate(-1.32)"/><path class="cls-1" d="M428,474.58h3.13l.84,9.57c.1,1.4.16,2.43.21,4h.09c.26-1.56.5-2.6.8-4l1.36-5.37h2.21l1.29,5.37c.31,1.35.53,2.39.81,4h.1c.07-1.58.1-2.61.19-4l.81-9.59h3l-2.23,16.53h-3.31L436,485.24a28.61,28.61,0,0,1-.53-3.07h-.07c-.14,1-.28,2-.51,3.07l-1.27,5.87h-3.24Z" transform="translate(-1.32)"/><path class="cls-1" d="M445.59,474.59h10.58v2.47h-7.64v4.23H455v2.47h-6.47v4.88h7.9v2.47H445.59Z" transform="translate(-1.32)"/><path class="cls-1" d="M460.31,474.59h5.12c3.41,0,5.86,1,5.86,4.06a3.62,3.62,0,0,1-2.86,3.59v.1c2.39.41,3.71,1.68,3.71,3.92,0,3.3-2.63,4.85-6.28,4.85h-5.55Zm4.86,6.79c2.31,0,3.25-.84,3.25-2.37s-1.05-2.07-3.18-2.07h-2v4.44Zm.38,7.38c2.43,0,3.73-.83,3.73-2.7s-1.26-2.45-3.73-2.45h-2.32v5.15Z" transform="translate(-1.32)"/><path class="cls-1" d="M490.61,474.59h5.12c3.4,0,5.86,1,5.86,4.06a3.62,3.62,0,0,1-2.86,3.59v.1c2.39.41,3.71,1.68,3.71,3.92,0,3.3-2.64,4.85-6.29,4.85h-5.54Zm4.86,6.79c2.31,0,3.25-.84,3.25-2.37s-1.05-2.07-3.19-2.07h-2v4.44Zm.38,7.38c2.42,0,3.72-.83,3.72-2.7s-1.25-2.45-3.72-2.45h-2.32v5.15Z" transform="translate(-1.32)"/><path class="cls-1" d="M505.7,474.59h5.52c3.42,0,6.08,1.22,6.08,4.91s-2.66,5.16-6.08,5.16h-2.57v6.45H505.7Zm5.21,7.72c2.27,0,3.49-.95,3.49-2.81s-1.22-2.56-3.49-2.56h-2.26v5.37Zm1.88-.2,5.15,9h-3.3l-4-7.24Z" transform="translate(-1.32)"/><path class="cls-1" d="M519.81,482.77c0-5.42,2.66-8.48,6.49-8.48s6.49,3.06,6.49,8.48-2.66,8.64-6.49,8.64S519.81,488.31,519.81,482.77Zm10,0c0-3.78-1.37-5.92-3.47-5.92s-3.47,2.14-3.47,5.92,1.37,6.08,3.47,6.08S529.77,486.66,529.77,482.77Z" transform="translate(-1.32)"/><path class="cls-1" d="M534.05,474.58h3.14l.84,9.57c.09,1.4.16,2.43.2,4h.09c.27-1.56.51-2.6.81-4l1.35-5.37h2.21l1.3,5.37c.3,1.35.53,2.39.8,4h.11c.06-1.58.09-2.61.19-4l.81-9.59h3l-2.23,16.53h-3.32L542,485.24c-.22-1-.41-2.07-.52-3.07h-.08c-.13,1-.28,2-.5,3.07l-1.28,5.87H536.4Z" transform="translate(-1.32)"/><path class="cls-1" d="M550.5,489l1.71-2a7,7,0,0,0,4.6,1.87c1.93,0,2.94-.84,2.94-2,0-1.48-1.13-1.87-2.74-2.55l-2.27-1c-1.73-.67-3.52-1.95-3.52-4.37,0-2.63,2.36-4.66,5.73-4.66a7.63,7.63,0,0,1,5.29,2.1l-1.5,1.87a5.83,5.83,0,0,0-3.93-1.41c-1.56,0-2.62.7-2.62,1.92s1.32,1.76,2.81,2.33l2.17.94c2.1.81,3.59,2.07,3.59,4.45,0,2.68-2.26,4.92-6.12,4.92A9,9,0,0,1,550.5,489Z" transform="translate(-1.32)"/><path class="cls-1" d="M566.77,474.59h10.59v2.47h-7.65v4.23h6.48v2.47h-6.48v4.88h7.9v2.47H566.77Z" transform="translate(-1.32)"/><path class="cls-1" d="M581.44,474.59H587c3.42,0,6.08,1.22,6.08,4.91s-2.66,5.16-6.08,5.16h-2.57v6.45h-2.95Zm5.21,7.72c2.26,0,3.49-.95,3.49-2.81s-1.23-2.56-3.49-2.56h-2.26v5.37Zm1.88-.2,5.15,9h-3.3l-4-7.24Z" transform="translate(-1.32)"/><path class="cls-1" d="M597.6,494.23a13.45,13.45,0,0,0,0-20.29l1.62-1.36a14.78,14.78,0,0,1,0,23Z" transform="translate(-1.32)"/><path class="cls-1" d="M415.8,36.13h4.44l.2,8.13V48.5h.1c.21-1.41.56-2.85.81-4.24l.91-4h2.53l.83,4c.23,1.34.58,2.78.81,4.24h.1V44.26l.2-8.13h4.14L429,52.54h-4.5l-.73-4.49a25.18,25.18,0,0,1-.38-3.21h-.07c-.08,1-.21,2.14-.38,3.21l-.68,4.49h-4.4Z" transform="translate(-1.32)"/><path class="cls-1" d="M433,36.13h11.17v3.63h-6.82v2.58h5.81V46h-5.81V48.9h7.07v3.64H433Z" transform="translate(-1.32)"/><path class="cls-1" d="M447.66,36.13h5.86c3.43,0,6.16.85,6.16,4.09a3.62,3.62,0,0,1-2.78,3.53v.1c2.32.46,3.49,1.67,3.49,3.84,0,3.39-2.83,4.85-6.37,4.85h-6.36Zm5.76,6.46c1.41,0,2-.71,2-1.72s-.61-1.41-2-1.41H452v3.13Zm.3,6.62c1.72,0,2.42-.66,2.42-1.87s-.7-1.72-2.42-1.72H452v3.59Z" transform="translate(-1.32)"/><path class="cls-1" d="M481.29,36.13h5.25l4.95,16.41h-4.6l-1.84-8c-.35-1.57-.83-3.54-1.19-5.2h-.1c-.35,1.66-.78,3.63-1.14,5.2l-1.84,8h-4.44ZM479.9,45.7h8v3.36h-8Z" transform="translate(-1.32)"/><path class="cls-1" d="M493.1,36.13h6.16c3.54,0,6.57,1.31,6.57,5.45s-3.13,5.76-6.57,5.76h-1.81v5.2H493.1Zm6,7.77c1.72,0,2.53-.85,2.53-2.32s-.91-2-2.53-2h-1.61V43.9Z" transform="translate(-1.32)"/><path class="cls-1" d="M508.25,36.13h6.16c3.54,0,6.57,1.31,6.57,5.45s-3.13,5.76-6.57,5.76h-1.82v5.2h-4.34Zm6,7.77c1.72,0,2.52-.85,2.52-2.32s-.9-2-2.52-2h-1.62V43.9Z" transform="translate(-1.32)"/><path class="cls-1" d="M417.59,77a14.51,14.51,0,0,1,5.5-11.5l1.62,1.35a13.45,13.45,0,0,0,0,20.29l-1.62,1.36A14.53,14.53,0,0,1,417.59,77Z" transform="translate(-1.32)"/><path class="cls-1" d="M428,67.49h3.13l.84,9.57c.1,1.4.16,2.43.21,4h.09c.26-1.56.5-2.6.8-4l1.36-5.37h2.21L438,77.08c.31,1.35.53,2.39.81,4h.1c.07-1.58.1-2.61.19-4l.81-9.59h3L440.59,84h-3.31L436,78.15a28.19,28.19,0,0,1-.53-3.07h-.07c-.14,1-.28,2-.51,3.07L433.61,84h-3.24Z" transform="translate(-1.32)"/><path class="cls-1" d="M445.59,67.51h10.58V70h-7.64V74.2H455v2.47h-6.47v4.88h7.9V84H445.59Z" transform="translate(-1.32)"/><path class="cls-1" d="M460.31,67.51h5.12c3.41,0,5.86,1,5.86,4.06a3.62,3.62,0,0,1-2.86,3.58v.1c2.39.41,3.71,1.68,3.71,3.92,0,3.3-2.63,4.85-6.28,4.85h-5.55Zm4.86,6.78c2.31,0,3.25-.83,3.25-2.37s-1.05-2.07-3.18-2.07h-2v4.44Zm.38,7.39c2.43,0,3.73-.84,3.73-2.7s-1.26-2.46-3.73-2.46h-2.32v5.16Z" transform="translate(-1.32)"/><path class="cls-1" d="M490.61,67.51h5.12c3.4,0,5.86,1,5.86,4.06a3.62,3.62,0,0,1-2.86,3.58v.1c2.39.41,3.71,1.68,3.71,3.92,0,3.3-2.64,4.85-6.29,4.85h-5.54Zm4.86,6.78c2.31,0,3.25-.83,3.25-2.37s-1.05-2.07-3.19-2.07h-2v4.44Zm.38,7.39c2.42,0,3.72-.84,3.72-2.7s-1.25-2.46-3.72-2.46h-2.32v5.16Z" transform="translate(-1.32)"/><path class="cls-1" d="M505.7,67.51h5.52c3.42,0,6.08,1.21,6.08,4.9s-2.66,5.16-6.08,5.16h-2.57V84H505.7Zm5.21,7.71c2.27,0,3.49-1,3.49-2.81s-1.22-2.56-3.49-2.56h-2.26v5.37Zm1.88-.2,5.15,9h-3.3l-4-7.24Z" transform="translate(-1.32)"/><path class="cls-1" d="M519.81,75.69c0-5.43,2.66-8.49,6.49-8.49s6.49,3.06,6.49,8.49-2.66,8.63-6.49,8.63S519.81,81.22,519.81,75.69Zm10,0c0-3.79-1.37-5.93-3.47-5.93s-3.47,2.14-3.47,5.93,1.37,6.08,3.47,6.08S529.77,79.58,529.77,75.69Z" transform="translate(-1.32)"/><path class="cls-1" d="M534.05,67.49h3.14l.84,9.57c.09,1.4.16,2.43.2,4h.09c.27-1.56.51-2.6.81-4l1.35-5.37h2.21l1.3,5.37c.3,1.35.53,2.39.8,4h.11c.06-1.58.09-2.61.19-4l.81-9.59h3L546.63,84h-3.32L542,78.15a30.76,30.76,0,0,1-.52-3.07h-.08c-.13,1-.28,2-.5,3.07L539.64,84H536.4Z" transform="translate(-1.32)"/><path class="cls-1" d="M550.5,81.91l1.71-2a7,7,0,0,0,4.6,1.88c1.93,0,2.94-.85,2.94-2,0-1.47-1.13-1.87-2.74-2.55l-2.27-1c-1.73-.68-3.52-2-3.52-4.38,0-2.63,2.36-4.66,5.73-4.66a7.59,7.59,0,0,1,5.29,2.11l-1.5,1.86a5.83,5.83,0,0,0-3.93-1.41c-1.56,0-2.62.7-2.62,1.93S555.51,73.44,557,74l2.17.95c2.1.8,3.59,2.06,3.59,4.44,0,2.69-2.26,4.92-6.12,4.92A9,9,0,0,1,550.5,81.91Z" transform="translate(-1.32)"/><path class="cls-1" d="M566.77,67.51h10.59V70h-7.65V74.2h6.48v2.47h-6.48v4.88h7.9V84H566.77Z" transform="translate(-1.32)"/><path class="cls-1" d="M581.44,67.51H587c3.42,0,6.08,1.21,6.08,4.9s-2.66,5.16-6.08,5.16h-2.57V84h-2.95Zm5.21,7.71c2.26,0,3.49-1,3.49-2.81s-1.23-2.56-3.49-2.56h-2.26v5.37Zm1.88-.2,5.15,9h-3.3l-4-7.24Z" transform="translate(-1.32)"/><path class="cls-1" d="M597.6,87.14a13.45,13.45,0,0,0,0-20.29l1.62-1.35a14.77,14.77,0,0,1,0,23Z" transform="translate(-1.32)"/><line class="cls-2" x1="243.03" y1="593.94" x2="243.03" y2="599.94"/><line class="cls-3" x1="243.03" y1="611.36" x2="243.03" y2="742.68"/><line class="cls-2" x1="243.03" y1="748.39" x2="243.03" y2="754.39"/><line class="cls-4" x1="243.03" y1="208.38" x2="243.03" y2="347.3"/><polygon class="cls-1" points="228.07 212.75 243.02 186.85 257.98 212.75 228.07 212.75"/><line class="cls-2" x1="423.49" y1="669.19" x2="417.49" y2="669.19"/><line class="cls-5" x1="406.41" y1="669.19" x2="278.99" y2="669.19"/><line class="cls-2" x1="273.45" y1="669.19" x2="267.45" y2="669.19"/><g id="_60qrAS.tif" data-name="60qrAS.tif"><path class="cls-1" d="M290.79,534.15H198c-.22-.06-.44-.15-.67-.19-9.88-1.67-16.41-9.05-16.44-19.08q-.12-44.2,0-88.4c0-11.15,8.19-19.3,19.34-19.34q44.21-.13,88.4,0a18.77,18.77,0,0,1,14.29,6.19,20.39,20.39,0,0,1,5,10.93v92.81a21.93,21.93,0,0,1-3.43,9A19.64,19.64,0,0,1,290.79,534.15Zm-46.41-89.27h-53c-2.64,0-2.66,0-2.66,2.6q0,33.22,0,66.45c0,7.84,4.54,12.41,12.34,12.41h86.69c7.79,0,12.33-4.57,12.34-12.41q0-33.22,0-66.46c0-2.57,0-2.58-2.66-2.59Zm-.07-7.86h53.35c2.4,0,2.41,0,2.41-2.46,0-2.67,0-5.35,0-8a11.28,11.28,0,0,0-4.83-9.57,12.58,12.58,0,0,0-7.45-2H234.6c-11.22,0-22.43,0-33.65,0-7.68,0-12.23,4.59-12.25,12.3q0,3.68,0,7.33c0,2.42,0,2.42,2.45,2.42Z" transform="translate(-1.32)"/><path class="cls-1" d="M270.62,426a3.91,3.91,0,1,1-3.88-3.9A4,4,0,0,1,270.62,426Z" transform="translate(-1.32)"/><path class="cls-1" d="M281.78,426a3.91,3.91,0,1,1-3.88-3.89A4,4,0,0,1,281.78,426Z" transform="translate(-1.32)"/><path class="cls-1" d="M289.1,422.09a3.91,3.91,0,1,1-4,3.8A4,4,0,0,1,289.1,422.09Z" transform="translate(-1.32)"/></g><g id="j3zOaK.tif"><path class="cls-1" d="M473.07,707.31a2.58,2.58,0,0,1-1.09-2.4c0-9.6,0-19.2,0-28.81,0-1.18,0-1.18-1.22-1.18-2.5,0-5,0-7.52,0a1.89,1.89,0,0,1-1.93-1.08,2,2,0,0,1,.55-2.3c3.48-3.49,7-7,10.44-10.47a3.09,3.09,0,0,1,2.34-.74c1.12-.05,2.25,0,3.38,0s1.1,0,1.1-1.16c0-2.36,0-4.73,0-7.09,0-1.84.73-2.55,2.57-2.56h3.64c.3,0,.65,0,.78-.35s-.16-.51-.35-.7c-.91-.93-1.84-1.83-2.74-2.76a2,2,0,0,1,0-3.17q3.56-3.62,7.17-7.17a2,2,0,0,1,3.11,0c.91.87,1.8,1.78,2.7,2.67.24.22.45.56.86.37s.3-.57.3-.89c0-1.27,0-2.54,0-3.8a1.94,1.94,0,0,1,2.21-2.17h10.22a1.93,1.93,0,0,1,2.19,2.18c0,1.21,0,2.42,0,3.63,0,.37-.16.84.33,1s.75-.25,1-.53c.8-.79,1.56-1.63,2.38-2.4,1.27-1.19,2.19-1.24,3.47-.06,2.58,2.36,5,4.92,7.35,7.46a1.78,1.78,0,0,1-.11,2.59c-1,1-2,1.93-2.94,2.91-.22.23-.61.41-.41.83s.58.29.9.29h3.55c1.74,0,2.48.74,2.49,2.47,0,2.45,0,4.9,0,7.35,0,.78.26,1,1,1,1.21,0,2.42,0,3.63,0a3.06,3.06,0,0,1,2.34,1c3.39,3.43,6.81,6.82,10.21,10.23.26.25.47.56.71.84v1.52a2.38,2.38,0,0,1-2.23,1.09c-2.47-.05-4.95,0-7.43,0-1.1,0-1.1,0-1.1,1.12,0,9.62,0,19.25,0,28.87a2.61,2.61,0,0,1-1.09,2.4ZM493.84,667a1.45,1.45,0,0,0-.08.82q0,17.28,0,34.56c0,1.18,0,1.18,1.23,1.18h37c1.23,0,1.23,0,1.23-1.2V676.1c0-1.18,0-1.18-1.15-1.18-9.5,0-19,0-28.48,0a3.75,3.75,0,0,1-2.91-1.21c-2-2.1-4.13-4.16-6.2-6.22C494.3,667.33,494.16,667.06,493.84,667Zm25.64-6.7c1.92,0,3.83,0,5.75,0,.66,0,.88-.22.87-.88,0-1.78,0-3.55,0-5.32,0-.62-.19-.86-.82-.84-1.07,0-2.14,0-3.21,0a1.92,1.92,0,0,1-2.17-1.46,13.33,13.33,0,0,0-.92-2.17,2.13,2.13,0,0,1,.37-2.71c.78-.81,1.56-1.62,2.38-2.39.41-.39.39-.64,0-1q-2-1.87-3.93-3.83c-.39-.38-.64-.41-1,0-.79.84-1.63,1.63-2.45,2.44a2,2,0,0,1-2.46.41c-.76-.37-1.56-.66-2.34-1a2,2,0,0,1-1.49-2.1c0-1.13,0-2.26,0-3.38,0-.6-.22-.8-.8-.79q-2.7,0-5.4,0c-.64,0-.84.25-.82.86,0,1.09,0,2.19,0,3.29a1.87,1.87,0,0,1-1.35,1.92c-.82.3-1.61.67-2.41,1a2,2,0,0,1-2.66-.48c-.78-.77-1.57-1.54-2.32-2.34-.38-.42-.62-.41-1,0-1.27,1.32-2.55,2.63-3.88,3.88-.52.49-.43.78,0,1.21.85.81,1.66,1.68,2.48,2.53a1.71,1.71,0,0,1,.33,2.09c-.39.84-.72,1.71-1,2.58a2,2,0,0,1-2.06,1.41c-1.12,0-2.25,0-3.38,0-.57,0-.8.17-.79.77,0,1.83,0,3.67,0,5.5,0,.52.16.77.72.77q5.84,0,11.66,0c.66,0,.66-.29.51-.79a9.48,9.48,0,0,1-.33-4,9.11,9.11,0,1,1,17.76,3.86c-.25.91-.25.92.74.92C515.82,660.32,517.65,660.31,519.48,660.31ZM490,667.12a1.53,1.53,0,0,0-.85.6c-2.13,2.12-4.27,4.25-6.38,6.39a2.49,2.49,0,0,1-2,.82c-1.29,0-2.59,0-3.88,0-.82,0-1.13.17-1.13,1.06q.06,13.26,0,26.51c0,.85.24,1.12,1.1,1.11,3.94,0,7.88,0,11.82,0,1.25,0,1.26,0,1.26-1.25v-35.2Zm6.71-3c0,.38.27.51.45.69,1.85,1.85,3.72,3.68,5.54,5.56a2.35,2.35,0,0,0,1.85.78q17.85,0,35.72,0a1.3,1.3,0,0,0,.94-.15c-.2-.22-.38-.43-.57-.62-1.85-1.85-3.72-3.68-5.54-5.56a2.15,2.15,0,0,0-1.7-.7q-18,0-35.9,0ZM467.76,671a2.53,2.53,0,0,0,.42.11h11.64a1.45,1.45,0,0,0,1.08-.55l5.73-5.73c.18-.18.48-.31.43-.66a1.92,1.92,0,0,0-.92-.08c-2.89,0-5.8.13-8.68-.05a5.35,5.35,0,0,0-4.81,2C471.17,667.79,469.46,669.31,467.76,671Zm36.77-10.7c1.07,0,2.14,0,3.2,0a1.3,1.3,0,0,0,1.3-.74,5.46,5.46,0,0,0,.67-3.89,5.31,5.31,0,0,0-9.67-1.76,5.44,5.44,0,0,0,.07,5.82,1.19,1.19,0,0,0,1,.57C502.28,660.3,503.4,660.31,504.53,660.31Z" transform="translate(-1.32)"/><path class="cls-1" d="M537,647.82c0,1.72,0,3.44,0,5.15a1.9,1.9,0,1,1-3.77.09c0-2.14,0-4.28,0-6.42,0-1.35,0-2.7,0-4a1.89,1.89,0,1,1,3.78-.08C537,644.28,537,646.05,537,647.82Z" transform="translate(-1.32)"/><path class="cls-1" d="M477.52,637.85c0,.93,0,1.86,0,2.79a1.86,1.86,0,0,1-3.68.35,9.61,9.61,0,0,1-.11-2.27c0-1.15,0-2.31,0-3.46a2,2,0,0,1,1.93-2,1.91,1.91,0,0,1,1.83,2.1c0,.81,0,1.63,0,2.44Z" transform="translate(-1.32)"/></g><path class="cls-1" d="M244.28,511.19a25.58,25.58,0,1,1,25.65-25.47A25.7,25.7,0,0,1,244.28,511.19ZM226.17,487c-1.27,0-2.54,0-3.81,0-.57,0-.79.12-.73.76a22.46,22.46,0,0,0,4.75,12c.28.37.51.47.91.16a22.48,22.48,0,0,1,4.39-2.69.66.66,0,0,0,.4-.9c-.2-.79-.35-1.6-.49-2.41A38.45,38.45,0,0,1,231,488c0-.92-.16-1-1.06-1ZM267,488c0-1,0-1-.94-1-2.46,0-4.92,0-7.38,0-.73,0-1,.3-1,1a40.32,40.32,0,0,1-1.12,8.4.64.64,0,0,0,.38.84,23.49,23.49,0,0,1,4.44,2.72c.37.29.6.21.86-.13A22.7,22.7,0,0,0,267,488Zm-40.85-3.75c1.27,0,2.54,0,3.8,0,.69,0,1-.27,1-.9a41.1,41.1,0,0,1,1.13-8.41.67.67,0,0,0-.44-.88,22.87,22.87,0,0,1-4.37-2.7c-.36-.27-.58-.24-.86.12a22.45,22.45,0,0,0-4.79,12c0,.56.11.76.68.75C223.6,484.19,224.89,484.21,226.19,484.21Zm36.29,0c1.29,0,2.58,0,3.88,0,.53,0,.75-.13.69-.73a22.35,22.35,0,0,0-4.78-12c-.26-.34-.48-.44-.85-.15a23.23,23.23,0,0,1-4.44,2.73.63.63,0,0,0-.39.84c.15.53.25,1.06.35,1.6a39.17,39.17,0,0,1,.77,6.66c0,.93.17,1.06,1,1.06C260,484.22,261.23,484.21,262.48,484.21ZM238.31,487c-1.31,0-2.63,0-3.95,0-.56,0-.77.23-.72.77s.09,1.14.14,1.71a42.36,42.36,0,0,0,.88,5.82c.09.37.22.6.66.47a28.71,28.71,0,0,1,6.94-1.28.68.68,0,0,0,.7-.78q0-3,0-6c0-.55-.23-.74-.77-.74C240.9,487,239.61,487,238.31,487Zm12.14,0c-1.29,0-2.58,0-3.88,0-.66,0-.86.25-.85.88,0,1.89,0,3.78,0,5.67,0,.69.3.94.92,1a25.27,25.27,0,0,1,6.51,1.2c.56.18.78,0,.92-.56a52.89,52.89,0,0,0,1-7.3c.05-.6-.14-.88-.78-.86C253,487,251.72,487,250.45,487Zm-12.17-2.77c1.29,0,2.58,0,3.88,0,.57,0,.81-.2.8-.79q0-2.91,0-5.82c0-.57-.21-.79-.77-.84a28.57,28.57,0,0,1-6.73-1.27c-.49-.16-.7,0-.82.51a52.7,52.7,0,0,0-1,7.39c0,.57.15.83.75.82C235.69,484.2,237,484.21,238.28,484.21Zm12.11,0h4c.51,0,.74-.19.7-.71a49.14,49.14,0,0,0-1-7.54c-.11-.5-.34-.61-.78-.47a29.18,29.18,0,0,1-6.8,1.29c-.55,0-.73.28-.73.8,0,1.94,0,3.89,0,5.83,0,.63.27.82.86.81C247.85,484.2,249.12,484.21,250.39,484.21ZM243,502.78c0-1.62,0-3.24,0-4.85,0-.5-.11-.83-.71-.76a31.3,31.3,0,0,0-6.07,1.17c-.45.14-.59.35-.42.81a22,22,0,0,0,3,5.88,9.13,9.13,0,0,0,3.42,2.93c.54.25.77.16.76-.48C242.94,505.91,243,504.35,243,502.78Zm2.77-.08c0,1.62,0,3.23,0,4.85,0,.55.19.67.68.44a6.9,6.9,0,0,0,1.81-1.16,18.22,18.22,0,0,0,4.73-7.74c.17-.46,0-.62-.44-.75a30.47,30.47,0,0,0-6.06-1.17c-.6-.07-.72.25-.72.75C245.73,499.52,245.73,501.11,245.73,502.7ZM243,468.54c0-1.59,0-3.18,0-4.78,0-.63-.26-.74-.78-.5a7.32,7.32,0,0,0-1.63,1.05,18,18,0,0,0-4.82,7.87c-.14.38,0,.54.38.66a27.79,27.79,0,0,0,6.06,1.19c.59.05.8-.2.79-.78C242.94,471.68,243,470.11,243,468.54Zm2.77-.07c0,1.55,0,3.09,0,4.64,0,.87.1,1,.94.9a27.08,27.08,0,0,0,5.84-1.15c.49-.15.56-.38.4-.83a22.42,22.42,0,0,0-2.95-5.76,9.67,9.67,0,0,0-3.19-2.88c-.86-.45-1-.35-1,.6C245.72,465.49,245.73,467,245.73,468.47Zm6.05-4.37a25.45,25.45,0,0,1,3.72,7c.12.35.31.48.67.29a22.62,22.62,0,0,0,3.42-2.11c.31-.23.27-.42,0-.65A21,21,0,0,0,251.78,464.1Zm-14.7-.14a22.43,22.43,0,0,0-8.07,4.76c-.28.25-.12.42.1.59a23.21,23.21,0,0,0,3.36,2.08c.39.2.59.09.73-.3a25.19,25.19,0,0,1,1-2.48A26.56,26.56,0,0,1,237.08,464Zm-.25,43.1a27.91,27.91,0,0,1-3.69-7.05c-.13-.36-.4-.3-.68-.17a21.46,21.46,0,0,0-3.36,2.06c-.23.18-.37.34-.09.6A20.94,20.94,0,0,0,236.83,507.06Zm15,0a21,21,0,0,0,7.81-4.55c.33-.3.12-.47-.12-.64a23,23,0,0,0-3.24-2c-.43-.22-.67-.14-.85.33-.28.77-.59,1.53-.92,2.28A30.6,30.6,0,0,1,251.85,507.06Z" transform="translate(-1.32)"/><g id="_60qrAS.tif-2" data-name="60qrAS.tif"><path class="cls-1" d="M350.31,127.07H138.45a5.53,5.53,0,0,0-.66-.2c-9.89-1.67-16.42-9.05-16.44-19.08q-.13-44.19,0-88.4c0-11.15,8.18-19.3,19.34-19.34,29.46-.08,178,0,207.45,0a18.75,18.75,0,0,1,14.29,6.18,20.49,20.49,0,0,1,5,10.93V110a21.76,21.76,0,0,1-3.44,9C360.61,123.71,355.94,126.19,350.31,127.07ZM303.91,37.8H131.83c-2.65,0-2.66,0-2.66,2.59q0,33.22,0,66.46c0,7.83,4.54,12.4,12.34,12.4,28.9,0,176.85,0,205.75,0,7.79,0,12.33-4.57,12.33-12.41q0-33.23,0-66.46c0-2.57,0-2.58-2.67-2.58Zm-.07-7.86h53.35c2.4,0,2.4,0,2.41-2.47,0-2.67,0-5.34,0-8a11.28,11.28,0,0,0-4.83-9.57,12.54,12.54,0,0,0-7.45-2H141.42c-7.68,0-12.22,4.6-12.25,12.31,0,2.44,0,4.88,0,7.32s0,2.43,2.44,2.43Z" transform="translate(-1.32)"/><path class="cls-1" d="M330.14,18.9a3.91,3.91,0,1,1-3.87-3.9A4,4,0,0,1,330.14,18.9Z" transform="translate(-1.32)"/><path class="cls-1" d="M341.31,18.89a3.91,3.91,0,0,1-7.82.12,3.91,3.91,0,1,1,7.82-.12Z" transform="translate(-1.32)"/><path class="cls-1" d="M348.62,15a4,4,0,0,1,3.85,3.92,3.91,3.91,0,1,1-7.81-.11A4,4,0,0,1,348.62,15Z" transform="translate(-1.32)"/></g><path class="cls-1" d="M312.07,105c.9-1.73,1.68-3.2,2.44-4.69q3.56-7,7.09-13.94a2.51,2.51,0,0,1,2.22-1.67c1.19,0,1.81.78,2.3,1.75,1.72,3.41,3.49,6.79,5.19,10.21a1.73,1.73,0,0,0,1.83,1.14c1.86-.06,3.73,0,5.59,0a2.28,2.28,0,0,1,2.52,2.22c0,1.27-1,2.14-2.57,2.15-2.52,0-5,0-7.55,0a2.9,2.9,0,0,1-3-1.82c-1.32-2.71-2.73-5.38-4.1-8-.66.07-.7.57-.88.91q-4.4,8.56-8.77,17.16c-.49,1-1,1.77-2.26,1.8s-1.9-.81-2.41-1.81q-3.57-7-7.17-14.06c-.18-.35-.24-.93-.72-.93s-.53.59-.71.94c-.74,1.4-1.45,2.81-2.15,4.24a2.61,2.61,0,0,1-2.55,1.6c-2.65,0-5.31,0-8,0-1.53,0-2.39-.82-2.41-2.13s.86-2.22,2.44-2.24c1.86,0,3.73,0,5.59,0a1.74,1.74,0,0,0,1.85-1.12c1.15-2.39,2.39-4.74,3.57-7.11.51-1,1.15-1.85,2.41-1.81s1.77.84,2.26,1.81q3.49,6.92,7,13.82C311.44,103.79,311.69,104.23,312.07,105Z" transform="translate(-1.32)"/><path class="cls-1" d="M325.83,62.54c0-4.24,0-8.47,0-12.71,0-2.48.77-3.22,3.28-3.22,3.07,0,6.14,0,9.21,0,2.13,0,3,.82,3,3q0,13.13,0,26.25c0,2.07-.81,2.82-2.92,2.83h-8.93c-3,0-3.61-.55-3.61-3.55C325.82,70.91,325.83,66.73,325.83,62.54Zm10.89.07c0-3.35,0-6.7,0-10,0-1-.33-1.44-1.37-1.39-1.25,0-2.51,0-3.77,0-.8,0-1.19.29-1.18,1.14q0,10.4,0,20.79c0,.82.31,1.18,1.16,1.15a31.22,31.22,0,0,1,3.62,0c1.28.1,1.58-.45,1.56-1.63C336.68,69.31,336.72,66,336.72,62.61Z" transform="translate(-1.32)"/><path class="cls-1" d="M301.36,65.42c0,3.35,0,6.7,0,10,0,2.56-.63,3.18-3.24,3.18h-8.94c-2.5,0-3.22-.69-3.25-3.24,0-3.4,0-6.8,0-10.2,0-3.21,0-6.42,0-9.64,0-2.71.72-3.39,3.38-3.39h8.8c2.65,0,3.25.61,3.25,3.32Q301.37,60.45,301.36,65.42Zm-10.9.13c0,2.51,0,5,0,7.54,0,.81.26,1.2,1.13,1.17,1.35,0,2.7,0,4.05,0,.84,0,1.17-.35,1.16-1.17q0-7.53,0-15.08c0-1-.46-1.31-1.37-1.29-1.17,0-2.34.06-3.5,0s-1.52.45-1.49,1.57C290.5,60.7,290.46,63.12,290.46,65.55Z" transform="translate(-1.32)"/><path class="cls-1" d="M306,68.4c0-2.42,0-4.84,0-7.26,0-2.18.88-3,3.08-3q4.67,0,9.35,0c2.15,0,3,.91,3,3.09q0,7.26,0,14.51c0,2.18-.78,2.94-2.94,3-3.26,0-6.52,0-9.77,0-1.91,0-2.72-.81-2.74-2.72C305.94,73.42,306,70.91,306,68.4Zm10.89.2c0-1.53,0-3.06,0-4.59,0-.92-.25-1.39-1.26-1.35-1.29.05-2.59,0-3.89,0-.82,0-1.18.31-1.17,1.14q0,4.66,0,9.33c0,.85.38,1.14,1.19,1.12,1.3,0,2.6,0,3.9,0,.89,0,1.26-.3,1.24-1.21C316.83,71.57,316.86,70.09,316.86,68.6Z" transform="translate(-1.32)"/><path class="cls-1" d="M167.85,92.44h91.69a13,13,0,0,1,1.4,0,2.25,2.25,0,0,1,2.13,2.2,2.22,2.22,0,0,1-1.93,2.23,7.08,7.08,0,0,1-1.53.1H145.42a5.46,5.46,0,0,1-1.93-.2,2.13,2.13,0,0,1-1.58-2.22,2.1,2.1,0,0,1,1.78-2,7.06,7.06,0,0,1,1.66-.1Z" transform="translate(-1.32)"/><path class="cls-1" d="M168.06,46.6h91.55a9.87,9.87,0,0,1,1.54,0,2.13,2.13,0,0,1,1.9,2.1,2,2,0,0,1-1.58,2.2,6.27,6.27,0,0,1-1.79.21H145.36a6.8,6.8,0,0,1-1.8-.19,2.09,2.09,0,0,1-1.64-2.3,2.13,2.13,0,0,1,2-2,9.84,9.84,0,0,1,1.54,0Z" transform="translate(-1.32)"/><path class="cls-1" d="M168,70.35h91.68a8.63,8.63,0,0,1,1.53.06,2.09,2.09,0,0,1,1.84,2.15,2,2,0,0,1-1.67,2.12,10.16,10.16,0,0,1-2.21.2c-14.81,0-98.81,0-113.62,0a8.31,8.31,0,0,1-1.93-.18,2.18,2.18,0,0,1,.22-4.3,9.74,9.74,0,0,1,1.53-.05Z" transform="translate(-1.32)"/><path class="cls-1" d="M159,57.77c4.75,0,9.49,0,14.24,0,1.62,0,2.64.92,2.59,2.27a2,2,0,0,1-1.6,2,10.17,10.17,0,0,1-2.21.22H145.63a9.66,9.66,0,0,1-1.94-.17,2.18,2.18,0,0,1,.22-4.32,28.59,28.59,0,0,1,3.07,0Z" transform="translate(-1.32)"/><path class="cls-1" d="M176.94,85.9H162.41a2.18,2.18,0,0,1-2.31-1.66,2.07,2.07,0,0,1,1-2.4,2.47,2.47,0,0,1,1.48-.33c9.6,0,88.38,0,98,0,1.55,0,2.57.92,2.54,2.18a2.26,2.26,0,0,1-2.55,2.19C255.73,85.92,181.74,85.9,176.94,85.9Z" transform="translate(-1.32)"/><path class="cls-1" d="M155.19,108c-3.54,0-7.07,0-10.61,0-1.65,0-2.68-.85-2.69-2.17s1-2.2,2.66-2.2c7.16,0,72.16,0,79.32,0,1.67,0,2.7.84,2.69,2.15s-1,2.21-2.66,2.22C220.28,108,158.82,108,155.19,108Z" transform="translate(-1.32)"/><path class="cls-1" d="M187.48,57.78c1.35,0,71.89,0,73.23,0a2.23,2.23,0,0,1,2.36,2.08A2.18,2.18,0,0,1,261,62.18c-2.88.26-74.95.24-77.82,0A2.14,2.14,0,0,1,181,59.92a2.28,2.28,0,0,1,2.44-2.15h4Z" transform="translate(-1.32)"/><path class="cls-1" d="M148.23,85.9c-1.35,0-2.7,0-4,0a2.18,2.18,0,1,1-.06-4.35q4.26-.06,8.52,0a2.15,2.15,0,0,1,2.2,2.21,2.19,2.19,0,0,1-2.29,2.14C151.11,85.93,149.67,85.9,148.23,85.9Z" transform="translate(-1.32)"/><g id="_4ushHV.tif" data-name="4ushHV.tif"><path class="cls-1" d="M295.75,329.79h5.43c.89.13,1.79.24,2.68.4a31.12,31.12,0,0,1,25.6,33.57,30.57,30.57,0,0,1-5.89,15.5c-.39.52-.33.81.11,1.25q9.75,9.71,19.47,19.44a5.58,5.58,0,0,1,1.47,2.24v2a5,5,0,0,1-1.19,1.9,4,4,0,0,1-5.62-.28Q328,396,318.2,386.15c-.51-.52-.82-.55-1.42-.12A30.39,30.39,0,0,1,292,391.31,30.93,30.93,0,0,1,267.74,356c2-11.9,9-20,20.25-24.41A32.21,32.21,0,0,1,295.75,329.79Zm25.94,31.13a23.25,23.25,0,1,0-23.3,23.18A23.25,23.25,0,0,0,321.69,360.92Z" transform="translate(-1.32)"/></g></g></g></svg>